<?xml version="1.0" encoding="utf-8"?>
<!-- Generator: Adobe Illustrator 27.5.0, SVG Export Plug-In . SVG Version: 6.00 Build 0)  -->
<svg version="1.1" xmlns="http://www.w3.org/2000/svg" xmlns:xlink="http://www.w3.org/1999/xlink" x="0px" y="0px"
	 viewBox="0 0 3710 3710" style="enable-background:new 0 0 3710 3710;" xml:space="preserve">
<g id="Background">
	<g>
		<g>
			<rect style="fill:#FFFFFF;" width="3710" height="3710"/>
		</g>
	</g>
</g>
<g id="Illustration">
	<g>
		<linearGradient id="SVGID_1_" gradientUnits="userSpaceOnUse" x1="3467.9897" y1="3606.2114" x2="1545.3777" y2="1559.5602">
			<stop  offset="0" style="stop-color:#DAE3FE"/>
			<stop  offset="1" style="stop-color:#E9EFFD"/>
		</linearGradient>
		<path style="fill:url(#SVGID_1_);" d="M2890.727,2785.104c-70.975,73.159-134.481,116.164-183.103,148.629
			c-474.204,316.63-1016.271,225.37-1183.865,194.177c-270.392-50.326-498.64-85.828-694.746-263.002
			c-445.612-402.593-423.938-1242.431-83.436-1762.674c40.373-61.686,380.36-565.651,923.6-636.664
			c13.287-1.737,23.201-2.726,31.884-3.645c84.038-8.898,604.805-55.858,1029.439,299.9
			c60.784,50.925,158.604,142.781,249.314,282.876C3311.492,1556.95,3312.542,2350.313,2890.727,2785.104z"/>
		<g>
			<g>
				<g style="opacity:0.3;">
					<path style="fill:#91B3FA;" d="M2056.101,1136.178c5.609-2.738,12.375-0.406,15.11,5.202
						c5.316,10.896,11.182,21.724,17.44,32.183c3.167,5.292,1.499,12.13-3.708,15.381c-0.062,0.039-0.124,0.077-0.187,0.117
						c-5.355,3.203-12.293,1.458-15.498-3.898c-6.585-11.009-12.763-22.407-18.358-33.879c-2.56-5.244-0.684-11.504,4.16-14.528
						C2055.393,1136.548,2055.74,1136.352,2056.101,1136.178z M2122.6,1222.381c7.621,9.504,15.72,18.771,24.081,27.553
						c4.3,4.516,4.128,11.669-0.391,15.973c-4.551,4.304-11.673,4.126-15.976-0.394c-8.796-9.238-17.323-18.993-25.343-28.991
						c-3.904-4.868-3.121-11.981,1.747-15.885c0.354-0.283,0.72-0.543,1.094-0.777
						C2112.602,1216.87,2118.979,1217.867,2122.6,1222.381z M2190.557,1290.018c9.519,7.548,19.481,14.774,29.617,21.478
						c5.203,3.442,6.632,10.454,3.19,15.658c-3.445,5.195-10.45,6.63-15.658,3.19c-10.674-7.061-21.168-14.672-31.189-22.62
						c-4.89-3.877-5.708-10.984-1.834-15.875c0.827-1.042,1.801-1.9,2.867-2.566
						C2181.489,1286.824,2186.71,1286.967,2190.557,1290.018z M2271.934,1340.757c10.979,5.237,22.312,10.055,33.686,14.328
						c5.841,2.196,8.798,8.711,6.604,14.551c-2.2,5.839-8.713,8.791-14.551,6.604c-11.976-4.5-23.907-9.575-35.463-15.081
						c-5.631-2.686-8.022-9.43-5.336-15.062c0.961-2.015,2.441-3.616,4.204-4.717
						C2264.244,1339.404,2268.317,1339.035,2271.934,1340.757z M2362.587,1372.103c11.839,2.66,23.961,4.853,36.025,6.508
						c6.184,0.853,10.505,6.553,9.656,12.734c-0.849,6.186-6.552,10.507-12.733,9.652c-12.692-1.743-25.447-4.05-37.904-6.849
						c-6.088-1.366-9.915-7.411-8.545-13.501c0.689-3.068,2.565-5.562,5.038-7.106
						C2356.558,1372.022,2359.567,1371.424,2362.587,1372.103z M2457.916,1382.609c12.152-0.022,24.452-0.569,36.563-1.623
						c6.216-0.541,11.696,4.061,12.236,10.275c0.542,6.218-4.056,11.696-10.275,12.239c-12.744,1.111-25.694,1.683-38.482,1.707
						c-6.24,0.01-11.307-5.037-11.32-11.279c-0.008-4.054,2.121-7.61,5.324-9.61
						C2453.69,1383.239,2455.728,1382.612,2457.916,1382.609z M2829.639,1188.015c5.198,3.45,6.617,10.464,3.165,15.663
						c-7.072,10.649-14.706,21.135-22.687,31.161c-3.887,4.883-10.996,5.69-15.877,1.802c-4.881-3.883-5.688-10.992-1.802-15.874
						c7.579-9.52,14.825-19.477,21.539-29.59c0.921-1.387,2.094-2.504,3.421-3.333
						C2821.04,1185.569,2825.828,1185.483,2829.639,1188.015z M2553.144,1371.729c11.836-2.723,23.698-5.993,35.256-9.724
						c5.941-1.914,12.309,1.347,14.224,7.285c1.917,5.942-1.358,12.28-7.286,14.223c-12.172,3.927-24.663,7.371-37.128,10.238
						c-6.081,1.398-12.145-2.396-13.544-8.479c-1.11-4.823,1.049-9.636,5.025-12.119
						C2550.726,1372.505,2551.887,1372.02,2553.144,1371.729z M2768.232,1265c4.293,4.526,4.104,11.679-0.424,15.974
						c-9.276,8.794-19.054,17.304-29.058,25.299c-4.863,3.921-11.985,3.097-15.881-1.775c-3.894-4.874-3.099-11.984,1.775-15.881
						c9.508-7.597,18.802-15.684,27.615-24.044c0.562-0.533,1.167-0.994,1.799-1.389
						C2758.521,1260.397,2764.474,1261.035,2768.232,1265z M2643.536,1339.845c10.922-5.3,21.758-11.141,32.209-17.365
						c5.361-3.196,12.294-1.438,15.49,3.924c3.15,5.291,1.48,12.116-3.72,15.362c-0.067,0.042-0.137,0.086-0.206,0.124
						c-11,6.557-22.409,12.708-33.902,18.287c-5.616,2.721-12.375,0.38-15.101-5.234c-2.545-5.242-0.667-11.489,4.17-14.509
						C2642.814,1340.223,2643.17,1340.027,2643.536,1339.845z"/>
					<path style="fill:#91B3FA;" d="M2855.121,1118.046c-1.887,1.178-3.448,2.923-4.391,5.125
						c-2.294,5.355-4.74,10.749-7.264,16.041c-2.69,5.629-0.305,12.377,5.324,15.064c5.63,2.692,12.383,0.311,15.065-5.328
						c2.659-5.563,5.229-11.237,7.645-16.872c2.458-5.734-0.198-12.38-5.931-14.836
						C2862.032,1115.723,2858.154,1116.153,2855.121,1118.046z"/>
				</g>
				<g style="opacity:0.3;">
					<path style="fill:#91B3FA;" d="M2856.424,773.573c-4.625,2.888-6.602,8.785-4.416,13.97c2.266,5.365,4.457,10.871,6.51,16.358
						c2.188,5.845,8.699,8.81,14.542,6.623c5.868-2.197,8.809-8.701,6.623-14.543c-2.163-5.777-4.47-11.575-6.854-17.225
						c-2.427-5.749-9.054-8.442-14.804-6.017C2857.462,772.977,2856.927,773.258,2856.424,773.573z"/>
					<path style="fill:#91B3FA;" d="M2237.306,559.536c5.448-3.043,12.332-1.092,15.375,4.36c3.041,5.449,1.089,12.318-4.36,15.372
						c-10.373,5.791-20.66,12.115-30.697,18.861c-5.142,3.482-12.2,2.103-15.681-3.076c-3.481-5.179-2.104-12.199,3.073-15.682
						c4.349-2.923,8.729-5.763,13.138-8.516C2224.446,566.926,2230.889,563.117,2237.306,559.536z M2172.313,618.035
						c4.147,4.658,3.734,11.8-0.926,15.949c-8.946,7.969-17.653,16.398-25.877,25.061c-4.277,4.534-11.447,4.713-15.974,0.417
						c-4.523-4.294-4.709-11.447-0.414-15.971c8.657-9.121,17.822-17.997,27.238-26.38c0.488-0.435,1.005-0.82,1.54-1.154
						C2162.484,613.094,2168.596,613.862,2172.313,618.035z M2292.995,533.275c11.71-4.57,23.778-8.703,35.868-12.277
						c5.984-1.77,12.27,1.647,14.041,7.633c1.769,5.983-1.651,12.26-7.633,14.039c-11.483,3.393-22.94,7.315-34.059,11.657
						c-5.814,2.267-12.366-0.604-14.636-6.419c-2.006-5.142,0.013-10.862,4.531-13.684
						C2291.696,533.857,2292.326,533.536,2292.995,533.275z M2105.647,688.365c5.071,3.634,6.239,10.695,2.601,15.765
						c-6.969,9.722-13.603,19.859-19.722,30.126c-3.195,5.367-10.126,7.119-15.489,3.922c-5.36-3.193-7.116-10.126-3.923-15.486
						c6.443-10.814,13.431-21.489,20.768-31.726c0.888-1.236,1.976-2.243,3.193-3.003
						C2096.843,685.61,2101.814,685.617,2105.647,688.365z M2388.923,507.649c12.421-1.881,25.097-3.256,37.678-4.087
						c6.226-0.412,11.605,4.299,12.019,10.524c0.415,6.23-4.301,11.61-10.528,12.022c-11.95,0.792-23.99,2.096-35.785,3.884
						c-6.171,0.934-11.931-3.311-12.864-9.482c-0.696-4.598,1.483-8.966,5.189-11.28
						C2385.901,508.438,2387.352,507.887,2388.923,507.649z M2488.146,503.683c12.563,0.882,25.234,2.304,37.663,4.227
						c6.167,0.957,10.393,6.727,9.439,12.895c-0.957,6.176-6.729,10.399-12.895,9.436c-11.809-1.826-23.851-3.178-35.789-4.018
						c-6.225-0.437-10.917-5.838-10.48-12.063c0.265-3.75,2.332-6.945,5.294-8.795
						C2483.332,504.144,2485.675,503.509,2488.146,503.683z M2585.879,521.434c12.078,3.598,24.14,7.748,35.845,12.328
						c5.813,2.276,8.677,8.829,6.404,14.64c-2.277,5.819-8.831,8.677-14.639,6.404c-11.124-4.356-22.582-8.294-34.062-11.714
						c-5.98-1.781-9.385-8.075-7.602-14.053c0.818-2.748,2.586-4.95,4.84-6.357C2579.319,521.024,2582.645,520.472,2585.879,521.434
						z M2677.411,560.083c10.999,6.151,21.862,12.845,32.287,19.895c5.169,3.495,6.527,10.52,3.03,15.69
						c-3.49,5.161-10.52,6.522-15.689,3.027c-9.897-6.693-20.211-13.048-30.661-18.891c-5.446-3.046-7.391-9.928-4.344-15.374
						c0.963-1.72,2.306-3.09,3.867-4.065C2669.283,558.253,2673.682,557.999,2677.411,560.083z M2758.255,617.93
						c9.35,8.403,18.463,17.319,27.09,26.501c4.274,4.548,4.052,11.701-0.498,15.973c-4.535,4.258-11.697,4.051-15.97-0.497
						c-8.195-8.724-16.851-17.19-25.731-25.174c-4.64-4.169-5.02-11.315-0.849-15.954c0.726-0.808,1.542-1.489,2.42-2.037
						C2748.88,614.141,2754.423,614.484,2758.255,617.93z M2824.355,692.039c5.377,7.544,10.587,15.347,15.485,23.19
						c1.774,2.841,3.51,5.691,5.213,8.556c3.187,5.362,1.555,12.36-3.939,15.483c-5.362,3.192-12.296,1.429-15.487-3.936
						c-1.618-2.72-3.27-5.435-4.955-8.135c-4.657-7.458-9.606-14.872-14.718-22.046c-3.622-5.08-2.437-12.136,2.644-15.757
						c0.191-0.135,0.385-0.266,0.582-0.389C2814.206,685.867,2820.872,687.148,2824.355,692.039z"/>
					<path style="fill:#91B3FA;" d="M2045.598,772.727c-1.906,1.19-3.475,2.955-4.416,5.177c-2.382,5.634-4.69,11.425-6.859,17.213
						c-2.192,5.844,0.769,12.357,6.611,14.547c5.844,2.189,12.355-0.763,14.547-6.612c2.062-5.497,4.255-10.998,6.515-16.348
						c2.431-5.743-0.257-12.374-6.005-14.805C2052.466,770.411,2048.612,770.846,2045.598,772.727z"/>
				</g>
				<g>
					<path style="fill:#91B3FA;" d="M2118.235,952.295c-0.283,2.236,0.882,4.404,2.903,5.401l57.64,28.437
						c3.111,29.854,11.004,59.427,23.854,87.516l-35.179,53.741c-1.234,1.886-1.135,4.345,0.245,6.127l47.215,60.944
						c1.379,1.782,3.738,2.492,5.871,1.768l60.827-20.637c23.988,19.46,50.651,34.493,78.782,44.963l13.134,62.916
						c0.461,2.205,2.27,3.876,4.505,4.159l76.481,9.708c2.234,0.284,4.405-0.882,5.401-2.903l28.437-57.64
						c29.854-3.11,59.427-11.003,87.517-23.854l53.742,35.179c1.885,1.234,4.345,1.137,6.126-0.244l60.946-47.216
						c1.781-1.381,2.49-3.738,1.766-5.871l-20.637-60.827c19.461-23.988,34.493-50.651,44.962-78.782l62.917-13.134
						c2.205-0.46,3.876-2.269,4.159-4.505l9.708-76.481c0.284-2.234-0.883-4.404-2.902-5.4l-57.642-28.437
						c-3.109-29.854-11.003-59.426-23.854-87.516l35.179-53.742c1.235-1.885,1.137-4.345-0.243-6.126l-47.217-60.945
						c-1.38-1.781-3.737-2.49-5.871-1.766l-60.827,20.636c-23.988-19.46-50.651-34.493-78.781-44.963l-13.134-62.916
						c-0.459-2.205-2.268-3.876-4.505-4.16l-76.481-9.708c-2.235-0.284-4.403,0.882-5.4,2.902l-28.437,57.641
						c-29.854,3.11-59.427,11.004-87.517,23.853l-53.742-35.179c-1.884-1.232-4.344-1.135-6.126,0.244l-60.945,47.216
						c-1.781,1.38-2.491,3.737-1.766,5.871l20.636,60.826c-19.46,23.988-34.491,50.652-44.962,78.782l-62.917,13.134
						c-2.205,0.46-3.876,2.27-4.159,4.504L2118.235,952.295z"/>
					<g>
						<path style="fill:#BDD0FB;" d="M2427.873,885.666c39.157-17.104,84.928,0.833,102.036,39.993
							c8.288,18.968,8.691,40.029,1.136,59.3c-7.551,19.269-22.155,34.45-41.128,42.733c-39.157,17.104-84.929-0.833-102.037-39.993
							c-15.562-35.625-2.119-76.722,29.923-96.73C2420.981,888.986,2424.343,887.208,2427.873,885.666z M2514.214,978.361
							c5.792-14.778,5.482-30.923-0.872-45.469c-13.115-30.019-48.212-43.777-78.232-30.661
							c-30.035,13.109-43.777,48.212-30.662,78.235c13.115,30.019,48.212,43.777,78.233,30.662c2.722-1.19,5.322-2.563,7.797-4.109
							C2501.223,1000.308,2509.506,990.37,2514.214,978.361z"/>
					</g>
					<path style="fill:#BDD0FB;" d="M2359.866,795.191c-5.503,3.436-10.865,7.169-16.064,11.196l0,0
						c-1.637,1.267-3.253,2.562-4.848,3.881c-7.865,6.508-15.199,13.633-21.891,21.261c-0.091,0.104-0.183,0.208-0.274,0.311
						c-0.258,0.296-0.515,0.592-0.77,0.892c-0.5,0.578-0.994,1.162-1.486,1.745c-1.293,1.536-1.388,3.681-0.38,5.3
						c0.245,0.393,0.557,0.755,0.93,1.069c1.909,1.607,4.758,1.353,6.366-0.551c8.267-9.83,17.65-18.832,27.888-26.759
						c50.839-39.4,116.18-47.482,172.656-27.238c31.414,11.256,60.085,31.28,81.992,59.56c3.843,4.958,7.407,10.074,10.683,15.324
						c22.054,35.327,31.211,76.82,25.895,118.691c-6.104,48.097-30.574,90.939-68.899,120.63
						c-79.158,61.314-193.356,46.793-254.648-32.322c-3.78-4.878-7.298-9.929-10.543-15.13
						c-14.067-22.536-23.046-47.899-26.204-74.301c-0.082-0.682-0.311-1.31-0.653-1.855c-0.898-1.438-2.574-2.31-4.37-2.094
						c-2.479,0.304-4.252,2.54-3.95,5.026c3.316,27.718,12.741,54.349,27.509,78.007c3.406,5.459,7.099,10.76,11.064,15.882
						c64.351,83.064,184.297,98.262,267.332,33.935c40.236-31.171,65.922-76.146,72.33-126.639
						c5.583-43.957-4.032-87.516-27.183-124.604c-3.441-5.511-7.182-10.881-11.212-16.086
						c-31.174-40.237-76.148-65.925-126.639-72.335C2440.526,762.406,2396.958,772.03,2359.866,795.191z"/>
				</g>
			</g>
			<g>
				<g style="opacity:0.3;">
					<path style="fill:#91B3FA;" d="M1570.302,1088.414c-2.561,1.599-3.876,4.742-3.02,7.799c1.595,5.705,3.384,11.441,5.32,17.045
						c1.258,3.642,5.228,5.573,8.875,4.317c3.653-1.245,5.574-5.232,4.317-8.875c-1.845-5.34-3.551-10.807-5.074-16.251
						c-1.035-3.709-4.886-5.875-8.6-4.842C1571.462,1087.795,1570.855,1088.069,1570.302,1088.414z"/>
					<path style="fill:#91B3FA;" d="M1590.069,1138.218c3.461-1.695,7.64-0.271,9.34,3.191c4.29,8.73,9.077,17.342,14.228,25.591
						c1.086,1.74,2.197,3.473,3.328,5.201c2.105,3.224,1.202,7.549-2.023,9.659c-3.129,1.873-7.549,1.202-9.664-2.024
						c-1.182-1.809-2.343-3.623-3.48-5.444c-5.4-8.647-10.419-17.677-14.915-26.834c-1.593-3.239-0.439-7.117,2.561-8.99
						C1589.643,1138.444,1589.853,1138.329,1590.069,1138.218z M1638.133,1200.626c7.608,9.012,15.84,17.635,24.472,25.623
						c2.829,2.62,3,7.029,0.381,9.861c-2.608,2.81-7.032,3.002-9.862,0.382c-9.047-8.371-17.68-17.41-25.655-26.861
						c-2.486-2.946-2.114-7.349,0.831-9.839c0.258-0.217,0.534-0.413,0.814-0.588
						C1632.01,1197.395,1635.867,1197.943,1638.133,1200.626z M1690.069,1248.653c9.569,6.864,19.669,13.196,30.027,18.828
						c3.383,1.84,4.636,6.079,2.796,9.462c-1.849,3.395-6.074,4.644-9.464,2.8c-10.861-5.904-21.457-12.552-31.491-19.745
						c-3.131-2.247-3.853-6.609-1.607-9.739c0.55-0.761,1.223-1.382,1.974-1.851
						C1684.63,1246.955,1687.7,1246.958,1690.069,1248.653z M1752.219,1282.453c10.977,4.313,22.325,7.986,33.711,10.903
						c3.737,0.961,5.987,4.762,5.027,8.495c-0.957,3.723-4.756,5.983-8.49,5.028c-11.948-3.064-23.839-6.911-35.354-11.436
						c-3.587-1.408-5.352-5.464-3.944-9.051c0.573-1.443,1.569-2.595,2.795-3.36
						C1747.776,1281.901,1750.078,1281.611,1752.219,1282.453z M1820.737,1300.055c11.691,1.514,23.581,2.317,35.35,2.392
						c3.85,0.022,6.956,3.168,6.933,7.023c-0.023,3.855-3.163,6.965-7.024,6.933c-12.333-0.076-24.799-0.921-37.051-2.502
						c-3.822-0.498-6.52-3.996-6.025-7.815c0.279-2.159,1.517-3.96,3.228-5.028
						C1817.469,1300.232,1819.072,1299.841,1820.737,1300.055z M1891.451,1300.491c11.696-1.374,23.413-3.492,34.832-6.3
						c3.74-0.921,7.523,1.369,8.441,5.109c0.918,3.741-1.361,7.51-5.111,8.446c-11.973,2.944-24.268,5.167-36.536,6.608
						c-3.827,0.446-7.295-2.29-7.744-6.115c-0.324-2.77,1.02-5.354,3.237-6.738
						C1889.418,1300.972,1890.391,1300.614,1891.451,1300.491z M1960.096,1283.626c10.967-4.189,21.817-9.124,32.248-14.673
						c3.405-1.805,7.629-0.514,9.437,2.889c1.811,3.4,0.495,7.573-2.885,9.442c-10.939,5.81-22.314,10.985-33.816,15.379
						c-3.602,1.374-7.636-0.43-9.012-4.03c-1.21-3.166,0.044-6.672,2.818-8.404
						C1959.261,1283.995,1959.665,1283.791,1960.096,1283.626z M2060.128,1228.844c2.583,2.862,2.355,7.271-0.508,9.854
						c-7.921,7.148-16.372,13.983-25.089,20.302c-1.32,0.968-2.648,1.91-3.982,2.848c-3.077,2.291-7.51,1.444-9.719-1.725
						c-2.21-3.159-1.437-7.506,1.721-9.719c1.255-0.873,2.502-1.764,3.761-2.687c8.345-6.046,16.406-12.566,23.961-19.381
						c0.31-0.282,0.642-0.529,0.983-0.742C2054.075,1225.834,2057.829,1226.294,2060.128,1228.844z"/>
				</g>
				<g style="opacity:0.3;">
					<path style="fill:#91B3FA;" d="M1701.545,757.128c10.399-6.308,21.275-12.031,32.322-17.025
						c3.511-1.582,7.646-0.025,9.233,3.49c1.589,3.516-0.014,7.626-3.49,9.233c-10.536,4.756-20.908,10.219-30.829,16.237
						c-3.294,2.001-7.588,0.946-9.584-2.347c-1.982-3.27-0.964-7.521,2.267-9.538
						C1701.49,757.163,1701.519,757.145,1701.545,757.128z M1681.285,779.116c2.378,3.031,1.848,7.419-1.184,9.794
						c-9.121,7.157-17.901,14.938-26.094,23.131c-2.717,2.701-7.144,2.726-9.871-0.007c-2.726-2.725-2.722-7.138,0.001-9.867
						c8.588-8.584,17.788-16.74,27.349-24.236c0.202-0.158,0.406-0.302,0.62-0.436
						C1675.089,775.633,1679.059,776.279,1681.285,779.116z M1768.044,727.126c11.622-3.609,23.562-6.541,35.489-8.71
						c3.792-0.689,7.429,1.829,8.115,5.618c0.694,3.793-1.817,7.409-5.613,8.117c-11.379,2.067-22.766,4.863-33.856,8.301
						c-3.682,1.142-7.591-0.916-8.732-4.591c-0.961-3.096,0.34-6.351,2.965-7.99C1766.91,727.561,1767.455,727.308,1768.044,727.126
						z M1629.709,828.354c3.038,2.37,3.577,6.757,1.207,9.795c-7.132,9.138-13.772,18.804-19.734,28.737
						c-1.986,3.297-6.275,4.368-9.572,2.394c-3.305-1.986-4.378-6.272-2.393-9.577c6.249-10.418,13.214-20.56,20.697-30.142
						c0.519-0.661,1.132-1.205,1.805-1.625C1624.135,826.428,1627.335,826.502,1629.709,828.354z M1839.798,714.089
						c12.121-0.707,24.412-0.677,36.537,0.083c3.847,0.241,6.769,3.558,6.528,7.405c-0.241,3.847-3.552,6.774-7.405,6.528
						c-11.565-0.733-23.286-0.757-34.846-0.079c-3.846,0.224-7.149-2.711-7.372-6.564c-0.156-2.635,1.18-5.019,3.276-6.328
						C1837.471,714.538,1838.59,714.16,1839.798,714.089z M1912.596,718.646c11.961,2.221,23.894,5.191,35.465,8.82
						c3.676,1.152,5.721,5.064,4.567,8.742c-1.149,3.674-5.066,5.726-8.748,4.571c-11.034-3.459-22.418-6.288-33.833-8.409
						c-3.789-0.703-6.29-4.347-5.587-8.137c0.373-2.001,1.564-3.645,3.169-4.647
						C1909.056,718.695,1910.811,718.315,1912.596,718.646z M1982.213,740.504c11.09,5.022,21.967,10.772,32.325,17.079
						c3.294,2.008,4.335,6.299,2.33,9.592c-2.002,3.291-6.3,4.328-9.588,2.331c-9.878-6.02-20.249-11.5-30.824-16.281
						c-3.512-1.591-5.07-5.728-3.477-9.237c0.586-1.306,1.527-2.335,2.654-3.039
						C1977.547,739.754,1980.003,739.506,1982.213,740.504z"/>
					<path style="fill:#91B3FA;" d="M1584.882,889.351c-1.142,0.713-2.089,1.763-2.677,3.086
						c-2.425,5.459-4.696,11.015-6.758,16.513c-1.351,3.608,0.476,7.633,4.085,8.987c3.605,1.34,7.627-0.48,8.987-4.086
						c1.964-5.244,4.134-10.544,6.444-15.754c1.564-3.523-0.027-7.647-3.548-9.209
						C1589.215,887.915,1586.781,888.165,1584.882,889.351z"/>
				</g>
				<g>
					<path style="fill:#91B3FA;" d="M1631.055,1013.925c-0.189,1.496,0.59,2.947,1.942,3.614l38.57,19.029
						c2.082,19.977,7.364,39.765,15.962,58.561l-23.54,35.962c-0.826,1.262-0.76,2.907,0.163,4.1l31.595,40.781
						c0.923,1.193,2.501,1.667,3.928,1.183l40.703-13.81c16.052,13.022,33.893,23.082,52.717,30.088l8.789,42.1
						c0.308,1.476,1.519,2.593,3.014,2.784l51.177,6.496c1.495,0.19,2.947-0.59,3.614-1.942l19.028-38.569
						c19.977-2.081,39.766-7.363,58.563-15.962l35.961,23.54c1.262,0.826,2.908,0.76,4.099-0.163l40.782-31.595
						c1.192-0.924,1.666-2.501,1.182-3.928l-13.809-40.703c13.022-16.052,23.082-33.893,30.087-52.717l42.102-8.788
						c1.475-0.308,2.594-1.518,2.783-3.014l6.496-51.178c0.19-1.495-0.591-2.946-1.942-3.613l-38.571-19.029
						c-2.08-19.977-7.362-39.765-15.962-58.562l23.54-35.962c0.826-1.26,0.761-2.907-0.163-4.099l-31.595-40.782
						c-0.923-1.191-2.501-1.666-3.928-1.182l-40.702,13.809c-16.052-13.022-33.894-23.081-52.718-30.087l-8.788-42.1
						c-0.308-1.476-1.518-2.593-3.014-2.784l-51.177-6.496c-1.496-0.19-2.947,0.59-3.614,1.942l-19.028,38.57
						c-19.977,2.081-39.766,7.363-58.562,15.962l-35.961-23.54c-1.261-0.825-2.907-0.76-4.1,0.163l-40.781,31.595
						c-1.192,0.923-1.667,2.501-1.182,3.929l13.808,40.702c-13.022,16.052-23.08,33.894-30.087,52.717l-42.101,8.789
						c-1.476,0.308-2.593,1.519-2.783,3.014L1631.055,1013.925z"/>
					<g>
						<path style="fill:#BDD0FB;" d="M1837.875,968.488c12.922-5.65,27.27-5.924,40.398-0.777
							c13.125,5.141,23.464,15.092,29.108,28.015c11.652,26.669-0.554,57.792-27.241,69.507
							c-26.677,11.645-57.854-0.576-69.499-27.242c-5.646-12.921-5.923-27.267-0.778-40.394
							c4.183-10.671,11.542-19.499,21.091-25.462C1833.147,970.766,1835.462,969.545,1837.875,968.488z M1894.594,1001.317
							c-4.153-9.507-11.757-16.826-21.417-20.613c-9.653-3.783-20.208-3.579-29.712,0.572l0,0
							c-9.499,4.164-16.822,11.758-20.608,21.417c-3.787,9.651-3.579,20.208,0.57,29.709c8.571,19.62,31.502,28.609,51.125,20.043
							c1.77-0.776,3.452-1.665,5.045-2.66C1895.652,1039.76,1902.39,1019.162,1894.594,1001.317z"/>
					</g>
					<path style="fill:#BDD0FB;" d="M1790.538,905.521c-3.746,2.339-7.401,4.887-10.967,7.644
						c-7.076,5.479-13.602,11.683-19.41,18.459c-0.259,0.306-0.517,0.613-0.776,0.919c-1.998,2.372-2.143,5.685-0.586,8.184
						c0.379,0.607,0.86,1.166,1.436,1.65c2.948,2.482,7.343,2.084,9.829-0.851c5.362-6.378,11.438-12.203,18.051-17.322l0.003-0.002
						c0.362-0.282,0.731-0.56,1.094-0.835c15.764-11.972,33.914-19.562,52.978-22.468c10.348-1.576,20.972-1.766,31.634-0.511
						c0.087,0.01,0.173,0.02,0.26,0.03c0.267,0.035,0.53,0.063,0.793,0.099c31.136,3.955,58.871,19.794,78.092,44.605
						c2.49,3.209,4.794,6.52,6.917,9.918c14.276,22.87,20.203,49.732,16.765,76.842c-3.954,31.136-19.797,58.866-44.606,78.085
						c-24.802,19.199-55.624,27.63-86.759,23.684c-31.135-3.954-58.871-19.794-78.092-44.605c-2.448-3.155-4.724-6.427-6.824-9.791
						c-9.108-14.592-14.92-31.009-16.963-48.1c-0.127-1.053-0.479-2.023-1.009-2.865c-1.386-2.22-3.976-3.568-6.748-3.235
						c-3.825,0.468-6.559,3.927-6.1,7.762c2.288,19.123,8.791,37.495,18.974,53.817c2.353,3.769,4.898,7.426,7.634,10.957
						c21.509,27.762,52.536,45.483,87.375,49.904c34.832,4.418,69.303-4.958,97.061-26.493
						c27.76-21.504,45.483-52.528,49.901-87.369c3.853-30.326-2.78-60.378-18.754-85.965c-2.371-3.798-4.952-7.506-7.732-11.096
						C1922.367,882.836,1847.008,870.26,1790.538,905.521z"/>
				</g>
			</g>
		</g>
		<g>
			<g>
				
					<linearGradient id="SVGID_00000003788787237898397840000017889722082690432686_" gradientUnits="userSpaceOnUse" x1="2172.4343" y1="120.7432" x2="1521.4834" y2="3495.6577">
					<stop  offset="0" style="stop-color:#4F52FF"/>
					<stop  offset="1" style="stop-color:#4042E2"/>
				</linearGradient>
				<path style="fill:url(#SVGID_00000003788787237898397840000017889722082690432686_);" d="M484.172,1180.07l139.872,1516.198
					c5.185,56.204,65.441,99.621,137.726,99.238l2267.281-12.015c73.67-0.39,133.784-46.082,136.144-103.482l60.922-1481.609
					c2.462-59.863-58.638-109.624-135.467-110.327L622.574,1065.5C542.323,1064.766,478.415,1117.669,484.172,1180.07z"/>
				<path style="fill:#BDD0FB;" d="M596.223,1385.399l123.82,1268.635c3.034,31.083,38.914,55.13,82.018,54.968l2228.507-8.381
					c44.737-0.168,80.987-26.288,81.367-58.628l14.372-1224.669c0.38-32.372-35.32-58.946-80.091-59.619L679.516,1322.12
					C631.41,1321.396,592.837,1350.701,596.223,1385.399z"/>
				<path style="fill:#91B3FA;" d="M1213.156,1403.841h10.399c8.99,0,16.321,7.205,16.477,16.193l21.581,1240.595
					c0.16,9.212-7.264,16.767-16.477,16.767l0,0c-8.936,0-16.244-7.122-16.474-16.055l-31.98-1240.595
					C1196.443,1411.481,1203.888,1403.841,1213.156,1403.841z"/>
				<g>
					<path style="fill:#BDD0FB;" d="M723.324,1816.825l365.891,3.042c15.404,0.128,27.824,12.651,27.824,28.056v0
						c0,15.568-12.674,28.159-28.242,28.056l-365.742-2.404c-12.969-0.085-24.19-9.049-27.138-21.679l-0.149-0.638
						C691.638,1833.566,705.157,1816.674,723.324,1816.825z"/>
					<path style="fill:#BDD0FB;" d="M813.713,1922.006c70.377,1.782,215.11,3.941,275.696,4.808
						c15.338,0.22,27.629,12.715,27.629,28.054v4.09c0,15.495-12.562,28.057-28.057,28.057H815.92
						c-12.178,0-22.966-7.857-26.703-19.448l-2.871-8.903C780.414,1940.264,794.386,1921.517,813.713,1922.006z"/>
					<path style="fill:#91B3FA;" d="M807.756,2044.345v4.559c0,14.699,11.916,26.615,26.615,26.615h251.196
						c14.276,0,25.848-11.573,25.848-25.848v0c0-14.476-11.735-26.21-26.21-26.21H828.641
						C817.107,2023.46,807.756,2032.81,807.756,2044.345z"/>
				</g>
				<g style="opacity:0.9;">
					
						<ellipse transform="matrix(0.7071 -0.7071 0.7071 0.7071 -91.6815 2215.7864)" style="fill:#91B3FA;" cx="2628.85" cy="1218.563" rx="69.522" ry="69.523"/>
					
						<ellipse transform="matrix(0.7071 -0.7071 0.7071 0.7071 -35.6572 2367.4749)" style="fill:#91B3FA;" cx="2839.966" cy="1226.779" rx="69.522" ry="69.522"/>
					
						<ellipse transform="matrix(0.7071 -0.7071 0.7071 0.7071 20.3671 2519.1631)" style="fill:#91B3FA;" cx="3051.083" cy="1234.996" rx="69.522" ry="69.522"/>
				</g>
			</g>
			<g>
				
					<linearGradient id="SVGID_00000144297464128470737600000004478801809720557502_" gradientUnits="userSpaceOnUse" x1="1908.946" y1="1388.1628" x2="1314.8104" y2="1817.6323">
					<stop  offset="0" style="stop-color:#FF928E"/>
					<stop  offset="1" style="stop-color:#FE7062"/>
				</linearGradient>
				<path style="fill:url(#SVGID_00000144297464128470737600000004478801809720557502_);" d="M1760.055,1488.624l-366.885-2.248
					c-12.061-0.076-21.702,9.997-21.107,22.038l10.356,213.205c0.584,12.055,10.528,20.859,22.598,20.859h392.928
					c12.068,0,22.011-8.799,22.598-20.852l7.71-158.006L1760.055,1488.624z"/>
				
					<linearGradient id="SVGID_00000093157151170945916990000010070453030761157267_" gradientUnits="userSpaceOnUse" x1="2868.1621" y1="203.3235" x2="1551.4449" y2="1795.4022" gradientTransform="matrix(0.9994 0.0343 -0.0343 0.9994 56.5304 -41.0612)">
					<stop  offset="0" style="stop-color:#E1473D"/>
					<stop  offset="1" style="stop-color:#E9605A"/>
				</linearGradient>
				<path style="fill:url(#SVGID_00000093157151170945916990000010070453030761157267_);" d="M1775.314,1561.726
					c-11.952-0.421-21.14-10.721-20.198-22.642l3.933-49.775l69.276,74.344L1775.314,1561.726z"/>
				<g>
					<path style="opacity:0.58;fill:#FFFFFF;" d="M1740.204,1564.928h-296.33c-8.572,0-15.522,4.633-15.522,10.348
						c0,5.715,6.95,10.348,15.522,10.348h296.33c8.572,0,15.522-4.633,15.522-10.348
						C1755.726,1569.561,1748.776,1564.928,1740.204,1564.928z"/>
					<path style="opacity:0.58;fill:#FFFFFF;" d="M1740.204,1626.075h-296.33c-8.572,0-15.522,4.633-15.522,10.348
						c0,5.715,6.95,10.348,15.522,10.348h296.33c8.572,0,15.522-4.633,15.522-10.348
						C1755.726,1630.709,1748.776,1626.075,1740.204,1626.075z"/>
				</g>
			</g>
			<g>
				
					<linearGradient id="SVGID_00000055707409516726556950000012385565819736814749_" gradientUnits="userSpaceOnUse" x1="2417.1584" y1="1466.8304" x2="1836.3704" y2="1776.1392">
					<stop  offset="0" style="stop-color:#FF928E"/>
					<stop  offset="1" style="stop-color:#FE7062"/>
				</linearGradient>
				<path style="fill:url(#SVGID_00000055707409516726556950000012385565819736814749_);" d="M2304.223,1488.624l-366.885-2.248
					c-12.061-0.076-21.702,9.997-21.107,22.038l10.356,213.205c0.583,12.055,10.528,20.859,22.598,20.859h392.928
					c12.068,0,22.011-8.799,22.598-20.852l7.71-158.006L2304.223,1488.624z"/>
				
					<linearGradient id="SVGID_00000103233019772429108520000016575134743017290135_" gradientUnits="userSpaceOnUse" x1="3181.9465" y1="462.8413" x2="1865.2281" y2="2054.9216" gradientTransform="matrix(0.9994 0.0343 -0.0343 0.9994 56.5304 -41.0612)">
					<stop  offset="0" style="stop-color:#E1473D"/>
					<stop  offset="1" style="stop-color:#E9605A"/>
				</linearGradient>
				<path style="fill:url(#SVGID_00000103233019772429108520000016575134743017290135_);" d="M2319.481,1561.726
					c-11.952-0.421-21.14-10.721-20.198-22.642l3.933-49.775l69.276,74.344L2319.481,1561.726z"/>
				<g>
					<path style="opacity:0.58;fill:#FFFFFF;" d="M2284.372,1564.928h-296.33c-8.572,0-15.522,4.633-15.522,10.348
						c0,5.715,6.949,10.348,15.522,10.348h296.33c8.572,0,15.522-4.633,15.522-10.348
						C2299.894,1569.561,2292.944,1564.928,2284.372,1564.928z"/>
					<path style="opacity:0.58;fill:#FFFFFF;" d="M2284.372,1626.075h-296.33c-8.572,0-15.522,4.633-15.522,10.348
						c0,5.715,6.949,10.348,15.522,10.348h296.33c8.572,0,15.522-4.633,15.522-10.348
						C2299.894,1630.709,2292.944,1626.075,2284.372,1626.075z"/>
				</g>
			</g>
			<g>
				
					<linearGradient id="SVGID_00000094611677309126866860000009919416053856853680_" gradientUnits="userSpaceOnUse" x1="2872.4023" y1="1481.0416" x2="2276.0374" y2="1903.8373">
					<stop  offset="0" style="stop-color:#FF928E"/>
					<stop  offset="1" style="stop-color:#FE7062"/>
				</linearGradient>
				<path style="fill:url(#SVGID_00000094611677309126866860000009919416053856853680_);" d="M2848.391,1488.624l-366.885-2.248
					c-12.062-0.076-21.702,9.997-21.107,22.038l10.356,213.205c0.583,12.055,10.528,20.859,22.598,20.859h392.928
					c12.068,0,22.011-8.799,22.598-20.852l7.71-158.006L2848.391,1488.624z"/>
				
					<linearGradient id="SVGID_00000090989030973571901060000017088156721705238408_" gradientUnits="userSpaceOnUse" x1="3495.7322" y1="722.3575" x2="2179.0151" y2="2314.4363" gradientTransform="matrix(0.9994 0.0343 -0.0343 0.9994 56.5304 -41.0612)">
					<stop  offset="0" style="stop-color:#E1473D"/>
					<stop  offset="1" style="stop-color:#E9605A"/>
				</linearGradient>
				<path style="fill:url(#SVGID_00000090989030973571901060000017088156721705238408_);" d="M2863.649,1561.726
					c-11.952-0.421-21.14-10.721-20.198-22.642l3.933-49.775l69.276,74.344L2863.649,1561.726z"/>
				<g>
					<path style="opacity:0.58;fill:#FFFFFF;" d="M2828.54,1564.928h-296.331c-8.572,0-15.522,4.633-15.522,10.348
						c0,5.715,6.949,10.348,15.522,10.348h296.331c8.572,0,15.522-4.633,15.522-10.348
						C2844.062,1569.561,2837.112,1564.928,2828.54,1564.928z"/>
					<path style="opacity:0.58;fill:#FFFFFF;" d="M2828.54,1626.075h-296.331c-8.572,0-15.522,4.633-15.522,10.348
						c0,5.715,6.949,10.348,15.522,10.348h296.331c8.572,0,15.522-4.633,15.522-10.348
						C2844.062,1630.709,2837.112,1626.075,2828.54,1626.075z"/>
				</g>
			</g>
			<g>
				
					<linearGradient id="SVGID_00000113353416497808559040000010562683566347245986_" gradientUnits="userSpaceOnUse" x1="1222.7723" y1="1372.0413" x2="570.7778" y2="1761.4579">
					<stop  offset="0" style="stop-color:#FF928E"/>
					<stop  offset="1" style="stop-color:#FE7062"/>
				</linearGradient>
				<path style="fill:url(#SVGID_00000113353416497808559040000010562683566347245986_);" d="M1065.904,1438.723l-366.885-2.248
					c-12.061-0.076-21.702,9.997-21.107,22.038l10.356,212.333c0.584,12.055,10.528,19.986,22.598,19.986h392.928
					c12.068,0,22.011-7.927,22.598-19.98l7.71-157.57L1065.904,1438.723z"/>
				
					<linearGradient id="SVGID_00000055672569134131603390000007288860378212773789_" gradientUnits="userSpaceOnUse" x1="2442.3757" y1="-148.8125" x2="1125.6606" y2="1443.2638" gradientTransform="matrix(0.9994 0.0343 -0.0343 0.9994 56.5304 -41.0612)">
					<stop  offset="0" style="stop-color:#E1473D"/>
					<stop  offset="1" style="stop-color:#E9605A"/>
				</linearGradient>
				<path style="fill:url(#SVGID_00000055672569134131603390000007288860378212773789_);" d="M1081.162,1511.824
					c-11.952-0.421-21.14-10.721-20.198-22.642l3.933-49.774l69.276,74.344L1081.162,1511.824z"/>
				<g>
					<path style="opacity:0.58;fill:#FFFFFF;" d="M1046.052,1515.027h-296.33c-8.572,0-15.522,4.633-15.522,10.348
						c0,5.715,6.95,10.348,15.522,10.348h296.33c8.572,0,15.522-4.633,15.522-10.348
						C1061.574,1519.659,1054.625,1515.027,1046.052,1515.027z"/>
					<path style="opacity:0.58;fill:#FFFFFF;" d="M1046.052,1576.174h-296.33c-8.572,0-15.522,4.633-15.522,10.348
						c0,5.715,6.95,10.348,15.522,10.348h296.33c8.572,0,15.522-4.633,15.522-10.348
						C1061.574,1580.807,1054.625,1576.174,1046.052,1576.174z"/>
				</g>
			</g>
			<g>
				
					<linearGradient id="SVGID_00000028302101081972699090000005859048193473310390_" gradientUnits="userSpaceOnUse" x1="2870.7114" y1="1829.9342" x2="2176.4375" y2="2274.9814">
					<stop  offset="0" style="stop-color:#FF928E"/>
					<stop  offset="1" style="stop-color:#FE7062"/>
				</linearGradient>
				<path style="fill:url(#SVGID_00000028302101081972699090000005859048193473310390_);" d="M2848.391,1824.389l-366.885-2.248
					c-12.062-0.077-21.702,9.997-21.107,22.038l10.356,212.333c0.583,12.055,10.528,19.986,22.598,19.986h392.928
					c12.068,0,22.011-7.927,22.598-19.98l7.71-157.57L2848.391,1824.389z"/>
				
					<linearGradient id="SVGID_00000018937556928572060210000009993958994610416559_" gradientUnits="userSpaceOnUse" x1="3667.3772" y1="864.3141" x2="2350.6621" y2="2456.3904" gradientTransform="matrix(0.9994 0.0343 -0.0343 0.9994 56.5304 -41.0612)">
					<stop  offset="0" style="stop-color:#E1473D"/>
					<stop  offset="1" style="stop-color:#E9605A"/>
				</linearGradient>
				<path style="fill:url(#SVGID_00000018937556928572060210000009993958994610416559_);" d="M2863.649,1897.491
					c-11.952-0.421-21.14-10.721-20.198-22.643l3.933-49.774l69.276,74.344L2863.649,1897.491z"/>
				<g>
					<path style="opacity:0.58;fill:#FFFFFF;" d="M2828.54,1900.693h-296.331c-8.572,0-15.522,4.633-15.522,10.348
						c0,5.715,6.949,10.348,15.522,10.348h296.331c8.572,0,15.522-4.633,15.522-10.348
						C2844.062,1905.326,2837.112,1900.693,2828.54,1900.693z"/>
					<path style="opacity:0.58;fill:#FFFFFF;" d="M2828.54,1961.841h-296.331c-8.572,0-15.522,4.633-15.522,10.348
						c0,5.715,6.949,10.348,15.522,10.348h296.331c8.572,0,15.522-4.633,15.522-10.348
						C2844.062,1966.474,2837.112,1961.841,2828.54,1961.841z"/>
				</g>
			</g>
			<g>
				
					<linearGradient id="SVGID_00000183932124467816261290000005286180169105801914_" gradientUnits="userSpaceOnUse" x1="2730.9956" y1="2257.3076" x2="2090.1265" y2="2644.4998">
					<stop  offset="0" style="stop-color:#FF928E"/>
					<stop  offset="1" style="stop-color:#FE7062"/>
				</linearGradient>
				<path style="fill:url(#SVGID_00000183932124467816261290000005286180169105801914_);" d="M2848.391,2160.155l-366.885-2.248
					c-12.062-0.077-21.702,9.997-21.107,22.038l10.356,212.745c0.583,12.055,10.528,20.398,22.598,20.398h392.928
					c12.068,0,22.011-8.339,22.598-20.392l7.71-157.776L2848.391,2160.155z"/>
				
					<linearGradient id="SVGID_00000000202707174225111940000016378357787696467080_" gradientUnits="userSpaceOnUse" x1="2773.4573" y1="2264.3848" x2="2972.2502" y2="2071.3535" gradientTransform="matrix(0.9994 0.0343 -0.0343 0.9994 56.5304 -41.0612)">
					<stop  offset="0" style="stop-color:#E1473D"/>
					<stop  offset="1" style="stop-color:#E9605A"/>
				</linearGradient>
				<path style="fill:url(#SVGID_00000000202707174225111940000016378357787696467080_);" d="M2863.649,2233.257
					c-11.952-0.421-21.14-10.721-20.198-22.643l3.933-49.774l69.276,74.344L2863.649,2233.257z"/>
				<g>
					<path style="opacity:0.58;fill:#FFFFFF;" d="M2828.54,2236.458h-296.331c-8.572,0-15.522,4.633-15.522,10.348
						c0,5.715,6.949,10.348,15.522,10.348h296.331c8.572,0,15.522-4.633,15.522-10.348
						C2844.062,2241.091,2837.112,2236.458,2828.54,2236.458z"/>
					<path style="opacity:0.58;fill:#FFFFFF;" d="M2828.54,2297.606h-296.331c-8.572,0-15.522,4.633-15.522,10.348
						c0,5.715,6.949,10.348,15.522,10.348h296.331c8.572,0,15.522-4.633,15.522-10.348
						C2844.062,2302.239,2837.112,2297.606,2828.54,2297.606z"/>
				</g>
			</g>
		</g>
		<g>
			<g>
				<g>
					
						<linearGradient id="SVGID_00000059307100543856745030000006320295085844900528_" gradientUnits="userSpaceOnUse" x1="2356.1775" y1="1297.7131" x2="1920.6102" y2="1843.4249">
						<stop  offset="0" style="stop-color:#E1473D"/>
						<stop  offset="1" style="stop-color:#E9605A"/>
					</linearGradient>
					<path style="fill:url(#SVGID_00000059307100543856745030000006320295085844900528_);" d="M1783.263,3029.864
						c42.95-0.038,77.738-34.888,77.699-77.839l-0.592-661.356c-0.032-36.487-28.653-66.547-65.093-68.37l-958.886-47.959
						c-28.516-1.427-52.548,21.042-53.042,49.589l-13.099,758.01c-0.463,26.824,21.167,48.812,47.996,48.788L1783.263,3029.864z"/>
					<g>
						
							<linearGradient id="SVGID_00000136388781701381570180000004925421365474685078_" gradientUnits="userSpaceOnUse" x1="1084.2864" y1="2919.396" x2="2095.6025" y2="1692.7981">
							<stop  offset="0" style="stop-color:#FF928E"/>
							<stop  offset="1" style="stop-color:#FE7062"/>
						</linearGradient>
						<path style="fill:url(#SVGID_00000136388781701381570180000004925421365474685078_);" d="M1846.225,2975.626
							c13.742,0.068,24.367-12.026,22.508-25.643c-12.328-90.303-50.485-400.835-31.004-657.626
							c0.888-11.711-7.994-21.865-19.722-22.478l-963.161-50.326c-13.207-0.691-24.49,9.404-25.26,22.606
							c-6.294,107.999-30.602,552.773-13.845,711.395c1.02,9.654,9.155,16.976,18.864,17.024L1846.225,2975.626z"/>
						
							<linearGradient id="SVGID_00000079461044783340874910000007325548074455696812_" gradientUnits="userSpaceOnUse" x1="1241.7793" y1="2728.8857" x2="2376.6523" y2="1313.634">
							<stop  offset="0" style="stop-color:#FEBBBA"/>
							<stop  offset="1" style="stop-color:#FF928E"/>
						</linearGradient>
						<path style="fill:url(#SVGID_00000079461044783340874910000007325548074455696812_);" d="M1822.081,2965.009
							c13.225,0.067,23.45-11.573,21.661-24.676c-11.864-86.903-48.584-385.742-29.837-632.863
							c0.855-11.27-7.692-21.042-18.978-21.632l-926.893-48.431c-12.709-0.664-23.569,9.05-24.309,21.755
							c-6.057,103.932-29.451,531.958-13.324,684.608c0.982,9.29,8.811,16.335,18.152,16.383L1822.081,2965.009z"/>
					</g>
					<path style="opacity:0.6;fill:#FFFFFF;" d="M1262.609,2432.267l0.059,66.826c0.009,10.2-8.337,18.432-18.536,18.282
						l-68.523-1.005c-9.976-0.146-17.99-8.271-17.999-18.249l-0.063-70.256c-0.009-10.56,8.91-18.928,19.447-18.246l68.526,4.435
						C1255.125,2414.675,1262.599,2422.642,1262.609,2432.267z"/>
					<path style="opacity:0.6;fill:#FFFFFF;" d="M1500.428,2522.02l-68.523-1.004c-9.977-0.147-17.99-8.272-17.999-18.25
						l-0.054-59.754c-0.009-10.499,8.812-18.845,19.295-18.255l68.524,3.856c9.669,0.544,17.233,8.538,17.242,18.223l0.051,56.903
						C1518.972,2513.938,1510.627,2522.17,1500.428,2522.02z"/>
					<path style="opacity:0.6;fill:#FFFFFF;" d="M1434.353,2818.338l65.187,0.693c10.92,0.115,19.714,8.995,19.724,19.915
						l0.054,61.06c0.01,10.846-8.653,19.71-19.497,19.948l-65.185,1.434c-11.173,0.245-20.364-8.738-20.374-19.913l-0.057-63.185
						C1414.196,2827.19,1423.253,2818.22,1434.353,2818.338z"/>
					<path style="opacity:0.6;fill:#FFFFFF;" d="M1542.406,2899.005l-0.054-59.701c-0.01-10.909,8.893-19.725,19.802-19.61
						l65.87,0.699c10.732,0.115,19.376,8.842,19.386,19.575l0.051,57.553c0.01,10.66-8.505,19.372-19.163,19.606l-65.868,1.449
						C1551.45,2918.818,1542.415,2909.988,1542.406,2899.005z"/>
					<path style="opacity:0.6;fill:#FFFFFF;" d="M1542.165,2629.482l-0.044-49.008c-0.01-11.835,9.72-21.36,21.551-21.099
						l62.887,1.392c11.453,0.253,20.609,9.604,20.619,21.061l0.042,46.836c0.011,11.55-9.274,20.958-20.824,21.102l-62.885,0.78
						C1551.773,2650.692,1542.175,2641.221,1542.165,2629.482z"/>
					<path style="opacity:0.6;fill:#FFFFFF;" d="M1542.292,2771.899l-0.067-74.959c-0.01-10.733,8.618-19.476,19.351-19.609
						l64.359-0.798c11.74-0.146,21.337,9.324,21.348,21.064l0.068,75.598c0.01,10.983-9.009,19.828-19.99,19.606l-65.871-1.331
						C1550.832,2791.256,1542.302,2782.559,1542.292,2771.899z"/>
					
						<linearGradient id="SVGID_00000026862569782323186570000015470964520732930957_" gradientUnits="userSpaceOnUse" x1="2317.6208" y1="1204.4885" x2="1503.1854" y2="2255.9104">
						<stop  offset="0" style="stop-color:#FEBBBA"/>
						<stop  offset="1" style="stop-color:#FF928E"/>
					</linearGradient>
					<path style="fill:url(#SVGID_00000026862569782323186570000015470964520732930957_);" d="M1372.28,2520.141l-68.522-1.005
						c-9.977-0.146-17.99-8.271-17.999-18.25l-0.058-65.086c-0.01-10.499,8.812-18.845,19.294-18.255l68.524,3.856
						c9.668,0.545,17.232,8.539,17.24,18.223l0.056,62.235C1390.824,2512.059,1382.479,2520.291,1372.28,2520.141z"/>
					
						<linearGradient id="SVGID_00000107581714342448989850000013529829188025082762_" gradientUnits="userSpaceOnUse" x1="2526.5122" y1="1366.2876" x2="1712.0756" y2="2417.7112">
						<stop  offset="0" style="stop-color:#FEBBBA"/>
						<stop  offset="1" style="stop-color:#FF928E"/>
					</linearGradient>
					<path style="fill:url(#SVGID_00000107581714342448989850000013529829188025082762_);" d="M1414.144,2768.975l-0.063-70.108
						c-0.01-10.919,8.769-19.815,19.688-19.951l65.185-0.809c11.099-0.138,20.173,8.817,20.183,19.916l0.065,72.233
						c0.01,11.175-9.166,20.174-20.338,19.949l-65.188-1.317C1422.832,2788.669,1414.153,2779.821,1414.144,2768.975z"/>
					<path style="opacity:0.6;fill:#FFFFFF;" d="M1301.274,2553.57l74.817,1.656c8.213,0.182,14.778,6.887,14.786,15.102
						l0.06,67.413c0.007,8.283-6.651,15.029-14.933,15.132l-74.815,0.927c-8.418,0.105-15.3-6.686-15.307-15.104l-0.063-69.997
						C1285.812,2560.213,1292.789,2553.382,1301.274,2553.57z"/>
					<path style="opacity:0.6;fill:#FFFFFF;" d="M1262.732,2571.288l0.057,64.203c0.01,10.41-8.359,18.89-18.768,19.019
						l-67.049,0.831c-10.579,0.131-19.229-8.404-19.239-18.984l-0.059-66.518c-0.01-10.667,8.759-19.252,19.423-19.016l67.052,1.484
						C1254.472,2552.535,1262.723,2560.963,1262.732,2571.288z"/>
					<path style="opacity:0.6;fill:#FFFFFF;" d="M1504.149,2651.282l-74.816,0.928c-8.418,0.104-15.299-6.687-15.307-15.105
						l-0.059-65.572c-0.008-8.486,6.969-15.317,15.454-15.129l74.818,1.655c8.213,0.182,14.778,6.888,14.786,15.103l0.056,62.987
						C1519.089,2644.433,1512.431,2651.18,1504.149,2651.282z"/>
					<path style="opacity:0.6;fill:#FFFFFF;" d="M1305.625,2680.506l65.185-0.809c11.098-0.137,20.172,8.816,20.183,19.916
						l0.06,68.054c0.01,11.175-9.166,20.175-20.338,19.949l-65.186-1.317c-10.844-0.219-19.523-9.067-19.532-19.914l-0.059-65.928
						C1285.928,2689.537,1294.705,2680.641,1305.625,2680.506z"/>
					<path style="opacity:0.6;fill:#FFFFFF;" d="M1175.225,2682.124l69.749-0.865c9.828-0.122,17.864,7.807,17.872,17.637
						l0.061,68.513c0.009,9.896-8.117,17.866-18.01,17.666l-69.751-1.409c-9.602-0.194-17.289-8.029-17.297-17.634l-0.059-66.239
						C1157.782,2690.121,1165.555,2682.243,1175.225,2682.124z"/>
					<path style="opacity:0.6;fill:#FFFFFF;" d="M1619.01,2522.873l-52.008-0.762c-13.833-0.203-24.944-11.468-24.956-25.303
						l-0.039-42.921c-0.012-12.969,10.885-23.279,23.833-22.55l57.831,3.254c13.121,0.739,23.386,11.588,23.398,24.73l0.033,35.845
						C1647.115,2510.625,1634.467,2523.1,1619.01,2522.873z"/>
					<path style="opacity:0.6;fill:#FFFFFF;" d="M1670.501,2842.175c-0.01-11.74,9.569-21.228,21.309-21.103l22.657,0.241
						c17.219,0.182,31.066,11.847,31.078,26.185l0.037,41.491c0.012,14.22-13.594,25.859-30.669,26.235l-24.342,0.535
						c-10.98,0.242-20.014-8.588-20.023-19.571L1670.501,2842.175z"/>
					
						<linearGradient id="SVGID_00000153688598673628765430000003453837213023891890_" gradientUnits="userSpaceOnUse" x1="2276.9172" y1="1172.9462" x2="1462.4789" y2="2224.3718">
						<stop  offset="0" style="stop-color:#FEBBBA"/>
						<stop  offset="1" style="stop-color:#FF928E"/>
					</linearGradient>
					<path style="fill:url(#SVGID_00000153688598673628765430000003453837213023891890_);" d="M942.376,2813.115l44.559,0.474
						c10.929,0.116,19.73,9.004,19.74,19.933l0.07,77.742c0.009,10.855-8.661,19.726-19.513,19.965l-44.386,0.976
						c-17.698,0.389-32.299-11.441-32.312-26.178l-0.06-66.67C910.462,2824.737,924.816,2812.93,942.376,2813.115z"/>
					<path style="opacity:0.6;fill:#FFFFFF;" d="M1713.211,2794.536l-22.112-0.446c-11.47-0.232-20.649-9.59-20.66-21.062
						l-0.068-76.202c-0.011-11.55,9.274-20.959,20.824-21.102l22.271-0.277c17.56-0.218,31.936,11.565,31.949,26.185l0.059,66.668
						C1745.489,2783.039,1730.909,2794.894,1713.211,2794.536z"/>
					
						<linearGradient id="SVGID_00000023996819629748053690000011058386069864569274_" gradientUnits="userSpaceOnUse" x1="597.3831" y1="426.8082" x2="-392.4374" y2="2206.1951" gradientTransform="matrix(-0.9698 -0.2439 -0.2439 0.9698 1831.1873 247.654)">
						<stop  offset="0" style="stop-color:#FEBBBA"/>
						<stop  offset="1" style="stop-color:#FF928E"/>
					</linearGradient>
					<path style="fill:url(#SVGID_00000023996819629748053690000011058386069864569274_);" d="M1714.314,2648.676l-27.855,0.345
						c-8.878,0.11-16.136-7.052-16.144-15.931l-0.049-55.039c-0.008-8.951,7.351-16.155,16.299-15.958l28.108,0.622
						c17.046,0.377,30.63,11.982,30.643,26.179l0.03,33.54C1745.358,2636.772,1731.533,2648.462,1714.314,2648.676z"/>
					<path style="opacity:0.6;fill:#FFFFFF;" d="M943.725,2396.329l44.643,2.512c10.057,0.566,17.926,8.882,17.935,18.956
						l0.069,76.791c0.009,10.61-8.672,19.173-19.281,19.018l-46.006-0.675c-17.159-0.252-30.912-11.896-30.924-26.183l-0.057-64.234
						C910.088,2407.327,925.526,2395.304,943.725,2396.329z"/>
					<path style="opacity:0.6;fill:#FFFFFF;" d="M1306.206,2816.978l65.186,0.692c10.92,0.116,19.714,8.996,19.723,19.917
						l0.058,65.238c0.01,10.846-8.653,19.71-19.497,19.949l-65.184,1.433c-11.172,0.246-20.363-8.738-20.373-19.912l-0.061-67.364
						C1286.05,2825.83,1295.107,2816.86,1306.206,2816.978z"/>
					
						<linearGradient id="SVGID_00000177470107036511737630000014917353680761900938_" gradientUnits="userSpaceOnUse" x1="2145.948" y1="1071.509" x2="1331.5139" y2="2122.9294">
						<stop  offset="0" style="stop-color:#FEBBBA"/>
						<stop  offset="1" style="stop-color:#FF928E"/>
					</linearGradient>
					<path style="fill:url(#SVGID_00000177470107036511737630000014917353680761900938_);" d="M942.573,2545.634l45.28,1.001
						c10.323,0.229,18.573,8.657,18.583,18.981l0.065,73.052c0.01,10.41-8.358,18.889-18.767,19.019l-45.496,0.565
						c-17.56,0.218-31.935-11.565-31.948-26.185l-0.054-60.199C910.222,2557.107,924.846,2545.242,942.573,2545.634z"/>
					<path style="opacity:0.6;fill:#FFFFFF;" d="M941.391,2685.023l47.294-0.586c9.828-0.121,17.863,7.807,17.872,17.636
						l0.053,60.156c0.009,9.896-8.116,17.865-18.01,17.666l-47.49-0.959c-17.074-0.345-30.702-11.96-30.715-26.18l-0.037-41.491
						C910.347,2696.927,924.172,2685.237,941.391,2685.023z"/>
					<path style="opacity:0.6;fill:#FFFFFF;" d="M1134.702,2700.484l0.058,64.335c0.008,9.895-8.117,17.866-18.011,17.666
						l-69.751-1.409c-9.603-0.194-17.288-8.03-17.297-17.635l-0.056-62.06c-0.009-9.67,7.765-17.548,17.434-17.667l69.749-0.865
						C1126.658,2682.725,1134.693,2690.655,1134.702,2700.484z"/>
					<path style="opacity:0.6;fill:#FFFFFF;" d="M1049.929,2814.257l65.153,0.692c10.929,0.116,19.73,9.003,19.74,19.933
						l0.066,73.563c0.01,10.854-8.66,19.726-19.513,19.965l-65.152,1.432c-11.181,0.246-20.381-8.745-20.391-19.929l-0.068-75.687
						C1029.755,2823.117,1038.82,2814.14,1049.929,2814.257z"/>
					<path style="opacity:0.6;fill:#FFFFFF;" d="M1713.178,2524.254l-27.263-0.4c-8.709-0.128-15.706-7.22-15.713-15.93
						l-0.048-53.833c-0.008-9.165,7.692-16.451,16.842-15.936l28.853,1.624c16.515,0.929,29.344,12.346,29.355,26.127l0.029,32.108
						C1745.247,2512.685,1730.798,2524.512,1713.178,2524.254z"/>
					<path style="opacity:0.6;fill:#FFFFFF;" d="M1178.076,2815.618l64.057,0.679c11.537,0.123,20.827,9.504,20.837,21.04
						l0.061,68.288c0.01,10.855-8.66,19.727-19.513,19.965l-65.151,1.433c-11.182,0.246-20.381-8.746-20.391-19.929l-0.064-71.509
						C1157.902,2824.478,1166.968,2815.5,1178.076,2815.618z"/>
					<path style="opacity:0.6;fill:#FFFFFF;" d="M1134.456,2425.008l0.064,71.458c0.01,10.611-8.672,19.174-19.282,19.018
						l-67.051-0.983c-10.379-0.152-18.716-8.604-18.724-18.984l-0.066-74.249c-0.01-10.921,9.166-19.604,20.071-18.99l67.054,3.773
						C1126.578,2406.619,1134.447,2414.935,1134.456,2425.008z"/>
					<path style="opacity:0.6;fill:#FFFFFF;" d="M1134.584,2568.452l0.062,68.628c0.009,10.41-8.359,18.889-18.767,19.019
						l-67.05,0.832c-10.58,0.132-19.229-8.404-19.239-18.985l-0.063-70.943c-0.01-10.666,8.76-19.251,19.423-19.015l67.051,1.483
						C1126.323,2549.7,1134.575,2558.127,1134.584,2568.452z"/>
					<path style="fill:#FFFFFF;" d="M1723.507,2382.046l-3.546,22.557c-1.136,7.223-7.356,12.547-14.668,12.554h-1.069
						c-8.208,0.008-14.868-6.64-14.875-14.847l-0.02-23.164c-0.009-8.978,7.885-15.912,16.787-14.749l4.636,0.606
						C1719.04,2366.085,1724.805,2373.788,1723.507,2382.046z"/>
					<path style="fill:#FFFFFF;" d="M1618.635,2374.09l-3.547,22.557c-1.135,7.223-7.356,12.547-14.667,12.553l-1.07,0.001
						c-8.208,0.007-14.867-6.64-14.874-14.848l-0.021-23.164c-0.008-8.978,7.885-15.912,16.787-14.75l4.636,0.606
						C1614.168,2358.13,1619.933,2365.833,1618.635,2374.09z"/>
					<path style="fill:#FFFFFF;" d="M1489.423,2373.244l-3.547,22.557c-1.135,7.222-7.356,12.546-14.667,12.553l-1.069,0
						c-8.208,0.008-14.867-6.64-14.874-14.848l-0.021-23.164c-0.008-8.977,7.885-15.912,16.787-14.748l4.636,0.606
						C1484.956,2357.283,1490.721,2364.986,1489.423,2373.244z"/>
					<path style="fill:#FFFFFF;" d="M1363.682,2365.051l-3.546,22.557c-1.136,7.223-7.355,12.547-14.668,12.554h-1.069
						c-8.208,0.008-14.868-6.64-14.875-14.848l-0.021-23.164c-0.008-8.977,7.885-15.912,16.786-14.749l4.636,0.606
						C1359.215,2349.09,1364.981,2356.793,1363.682,2365.051z"/>
					<path style="fill:#FFFFFF;" d="M1234.75,2345.987l-3.547,22.557c-1.135,7.222-7.356,12.547-14.667,12.553l-1.07,0.001
						c-8.208,0.007-14.867-6.641-14.874-14.849l-0.021-23.163c-0.008-8.978,7.885-15.913,16.787-14.75l4.636,0.606
						C1230.283,2330.026,1236.048,2337.73,1234.75,2345.987z"/>
					<path style="fill:#FFFFFF;" d="M1097.753,2346.11l-3.546,22.557c-1.135,7.223-7.356,12.547-14.668,12.553l-1.069,0
						c-8.207,0.008-14.867-6.64-14.875-14.848l-0.02-23.163c-0.008-8.978,7.885-15.912,16.787-14.75l4.636,0.606
						C1093.287,2330.149,1099.052,2337.853,1097.753,2346.11z"/>
					<path style="fill:#FFFFFF;" d="M982.218,2341.341l-3.546,22.557c-1.135,7.222-7.356,12.547-14.667,12.553l-1.07,0
						c-8.208,0.008-14.867-6.64-14.874-14.848l-0.021-23.164c-0.008-8.978,7.885-15.912,16.787-14.749l4.636,0.606
						C977.752,2325.38,983.516,2333.083,982.218,2341.341z"/>
					
						<linearGradient id="SVGID_00000124862243840361066870000009913242359098813327_" gradientUnits="userSpaceOnUse" x1="1672.5682" y1="2314.752" x2="1735.0031" y2="2314.752">
						<stop  offset="0" style="stop-color:#FF928E"/>
						<stop  offset="1" style="stop-color:#FE7062"/>
					</linearGradient>
					
						<circle style="fill:url(#SVGID_00000124862243840361066870000009913242359098813327_);" cx="1703.786" cy="2314.752" r="31.21"/>
					
						<linearGradient id="SVGID_00000182509345438021303330000014572412913056510359_" gradientUnits="userSpaceOnUse" x1="1490.7867" y1="2304.8726" x2="1553.2216" y2="2304.8726">
						<stop  offset="0" style="stop-color:#FF928E"/>
						<stop  offset="1" style="stop-color:#FE7062"/>
					</linearGradient>
					
						<circle style="fill:url(#SVGID_00000182509345438021303330000014572412913056510359_);" cx="1522.004" cy="2304.873" r="31.21"/>
					
						<linearGradient id="SVGID_00000133525854592577785460000007710183917710115979_" gradientUnits="userSpaceOnUse" x1="1303.3843" y1="2296.9919" x2="1365.8191" y2="2296.9919">
						<stop  offset="0" style="stop-color:#FF928E"/>
						<stop  offset="1" style="stop-color:#FE7062"/>
					</linearGradient>
					
						<circle style="fill:url(#SVGID_00000133525854592577785460000007710183917710115979_);" cx="1334.602" cy="2296.992" r="31.21"/>
					
						<linearGradient id="SVGID_00000182490492280548956020000015779972904511150479_" gradientUnits="userSpaceOnUse" x1="1109.5721" y1="2280.675" x2="1172.007" y2="2280.675">
						<stop  offset="0" style="stop-color:#FF928E"/>
						<stop  offset="1" style="stop-color:#FE7062"/>
					</linearGradient>
					
						<circle style="fill:url(#SVGID_00000182490492280548956020000015779972904511150479_);" cx="1140.79" cy="2280.675" r="31.21"/>
					
						<linearGradient id="SVGID_00000008839766820548493890000014569565144679833514_" gradientUnits="userSpaceOnUse" x1="920.1707" y1="2267.1733" x2="982.6055" y2="2267.1733">
						<stop  offset="0" style="stop-color:#FF928E"/>
						<stop  offset="1" style="stop-color:#FE7062"/>
					</linearGradient>
					
						<circle style="fill:url(#SVGID_00000008839766820548493890000014569565144679833514_);" cx="951.388" cy="2267.173" r="31.21"/>
					
						<linearGradient id="SVGID_00000014609813582426121510000005963051191412851135_" gradientUnits="userSpaceOnUse" x1="1795.921" y1="2086.8257" x2="1558.9332" y2="2470.6797">
						<stop  offset="0" style="stop-color:#FF928E"/>
						<stop  offset="1" style="stop-color:#FE7062"/>
					</linearGradient>
					<path style="fill:url(#SVGID_00000014609813582426121510000005963051191412851135_);" d="M1698.301,2320.773l8.812-0.008
						c9.583-0.009,17.346-6.817,17.339-15.207l-0.101-112.826c-0.006-6.124-4.21-11.645-10.665-14.004l-18.507-6.764
						c-11.929-4.36-24.922,3.821-23.996,15.109l9.796,119.599C1681.63,2314.624,1689.193,2320.781,1698.301,2320.773z"/>
					
						<linearGradient id="SVGID_00000015344458566934064270000013711747301836171669_" gradientUnits="userSpaceOnUse" x1="1687.465" y1="2022.9832" x2="1363.6935" y2="2430.2007">
						<stop  offset="0" style="stop-color:#FF928E"/>
						<stop  offset="1" style="stop-color:#FE7062"/>
					</linearGradient>
					<path style="fill:url(#SVGID_00000015344458566934064270000013711747301836171669_);" d="M1517.427,2312.486l8.811-0.008
						c9.583-0.009,17.347-6.817,17.34-15.208l-0.101-112.827c-0.006-6.124-4.211-11.645-10.665-14.004l-18.507-6.763
						c-11.928-4.359-24.921,3.822-23.996,15.109l9.797,119.598C1500.756,2306.337,1508.319,2312.494,1517.427,2312.486z"/>
					
						<linearGradient id="SVGID_00000106848845772624629720000005597360443374025138_" gradientUnits="userSpaceOnUse" x1="1470.4542" y1="2063.9558" x2="1200.0883" y2="2384.3896">
						<stop  offset="0" style="stop-color:#FF928E"/>
						<stop  offset="1" style="stop-color:#FE7062"/>
					</linearGradient>
					<path style="fill:url(#SVGID_00000106848845772624629720000005597360443374025138_);" d="M1329.142,2307.04l8.812-0.008
						c9.584-0.009,17.347-6.817,17.339-15.207l-0.1-112.827c-0.006-6.124-4.211-11.645-10.665-14.004l-18.508-6.764
						c-11.928-4.359-24.921,3.822-23.997,15.11l9.797,119.598C1312.471,2300.891,1320.035,2307.048,1329.142,2307.04z"/>
					
						<linearGradient id="SVGID_00000119093173304022545370000015017637827946885267_" gradientUnits="userSpaceOnUse" x1="1327.6143" y1="2008.0427" x2="1003.8422" y2="2365.1936">
						<stop  offset="0" style="stop-color:#FF928E"/>
						<stop  offset="1" style="stop-color:#FE7062"/>
					</linearGradient>
					<path style="fill:url(#SVGID_00000119093173304022545370000015017637827946885267_);" d="M1135.035,2296.035l8.812-0.008
						c9.583-0.009,17.346-6.817,17.339-15.208l-0.101-112.827c-0.005-6.124-4.21-11.645-10.665-14.004l-18.507-6.764
						c-11.928-4.36-24.921,3.822-23.997,15.11l9.797,119.598C1118.365,2289.886,1125.928,2296.044,1135.035,2296.035z"/>
					
						<linearGradient id="SVGID_00000003104534125158803160000005358794223610648730_" gradientUnits="userSpaceOnUse" x1="1089.9183" y1="2048.6982" x2="802.8633" y2="2365.7937">
						<stop  offset="0" style="stop-color:#FF928E"/>
						<stop  offset="1" style="stop-color:#FE7062"/>
					</linearGradient>
					<path style="fill:url(#SVGID_00000003104534125158803160000005358794223610648730_);" d="M945.74,2283.526l8.812-0.008
						c9.583-0.009,17.346-6.817,17.339-15.208l-0.101-112.827c-0.005-6.124-4.21-11.645-10.665-14.004l-18.507-6.764
						c-11.928-4.359-24.921,3.822-23.997,15.11l9.797,119.598C929.07,2277.376,936.633,2283.534,945.74,2283.526z"/>
				</g>
			</g>
			<g>
				
					<linearGradient id="SVGID_00000023270880205862961490000013037313193641393853_" gradientUnits="userSpaceOnUse" x1="1405.4304" y1="2021.064" x2="1278.5923" y2="2311.4568">
					<stop  offset="0" style="stop-color:#E1473D"/>
					<stop  offset="1" style="stop-color:#E9605A"/>
				</linearGradient>
				<path style="fill:url(#SVGID_00000023270880205862961490000013037313193641393853_);" d="M1197.328,2505.953
					c-0.857,0.216-1.751,0.294-2.651,0.225c-2.404-0.184-4.607-1.409-6.035-3.352l-22.08-30.061
					c-2.705-3.682-1.912-8.86,1.771-11.565c3.683-2.706,8.861-1.912,11.565,1.771l16.383,22.306l62.061-61.886
					c3.235-3.226,8.476-3.218,11.7,0.017c3.227,3.235,3.219,8.473-0.016,11.7l-68.874,68.68
					C1200.085,2504.853,1198.759,2505.593,1197.328,2505.953z"/>
			</g>
			<g>
				
					<linearGradient id="SVGID_00000108997790832476488500000007574877992543302280_" gradientUnits="userSpaceOnUse" x1="1714.7046" y1="2075.801" x2="1637.934" y2="2336.1538">
					<stop  offset="0" style="stop-color:#E1473D"/>
					<stop  offset="1" style="stop-color:#E9605A"/>
				</linearGradient>
				<path style="fill:url(#SVGID_00000108997790832476488500000007574877992543302280_);" d="M1585.577,2498.6
					c-0.857,0.216-1.751,0.294-2.651,0.225c-2.404-0.184-4.607-1.409-6.035-3.352l-22.08-30.061
					c-2.705-3.682-1.912-8.861,1.771-11.565c3.683-2.706,8.861-1.912,11.565,1.771l16.383,22.305l62.061-61.886
					c3.235-3.226,8.476-3.218,11.7,0.017c3.227,3.235,3.219,8.474-0.016,11.7l-68.874,68.68
					C1588.333,2497.5,1587.007,2498.24,1585.577,2498.6z"/>
			</g>
			<g>
				
					<linearGradient id="SVGID_00000078047173832096842350000005190086606532802219_" gradientUnits="userSpaceOnUse" x1="1777.1761" y1="2091.8779" x2="1556.8885" y2="2552.4788">
					<stop  offset="0" style="stop-color:#E1473D"/>
					<stop  offset="1" style="stop-color:#E9605A"/>
				</linearGradient>
				<path style="fill:url(#SVGID_00000078047173832096842350000005190086606532802219_);" d="M1457.737,2772.486
					c-0.857,0.216-1.751,0.294-2.651,0.225c-2.404-0.184-4.607-1.409-6.035-3.352l-22.08-30.061
					c-2.705-3.682-1.912-8.861,1.771-11.565c3.683-2.706,8.861-1.912,11.565,1.771l16.383,22.305l62.061-61.886
					c3.235-3.226,8.476-3.218,11.7,0.017c3.227,3.235,3.219,8.473-0.016,11.7l-68.874,68.68
					C1460.493,2771.385,1459.167,2772.126,1457.737,2772.486z"/>
			</g>
			<g>
				
					<linearGradient id="SVGID_00000041280751863235078770000006432217953178855605_" gradientUnits="userSpaceOnUse" x1="1506.9111" y1="3112.2214" x2="1509.4969" y2="3042.8379" gradientTransform="matrix(0.9698 -0.2439 0.2439 0.9698 -601.6001 247.654)">
					<stop  offset="0" style="stop-color:#E1473D"/>
					<stop  offset="1" style="stop-color:#E9605A"/>
				</linearGradient>
				<path style="fill:url(#SVGID_00000041280751863235078770000006432217953178855605_);" d="M1586.758,2905.161
					c-0.857,0.216-1.751,0.295-2.651,0.226c-2.404-0.185-4.607-1.409-6.035-3.352l-22.079-30.061
					c-2.705-3.682-1.912-8.861,1.771-11.565c3.683-2.706,8.861-1.912,11.565,1.771l16.383,22.305l62.061-61.885
					c3.235-3.226,8.475-3.219,11.7,0.017c3.227,3.235,3.22,8.474-0.016,11.7l-68.874,68.68
					C1589.515,2904.061,1588.189,2904.801,1586.758,2905.161z"/>
			</g>
			<g>
				
					<linearGradient id="SVGID_00000029044930796576516380000003492891020160855487_" gradientUnits="userSpaceOnUse" x1="1275.8022" y1="2406.5291" x2="1175.6665" y2="2653.5305">
					<stop  offset="0" style="stop-color:#E1473D"/>
					<stop  offset="1" style="stop-color:#E9605A"/>
				</linearGradient>
				<path style="fill:url(#SVGID_00000029044930796576516380000003492891020160855487_);" d="M1073.471,2910.269
					c-0.857,0.216-1.751,0.294-2.651,0.225c-2.404-0.184-4.607-1.409-6.035-3.352l-22.08-30.061
					c-2.705-3.682-1.912-8.861,1.771-11.565c3.683-2.706,8.861-1.912,11.565,1.771l16.383,22.305l62.061-61.886
					c3.235-3.226,8.476-3.218,11.7,0.017c3.227,3.235,3.219,8.474-0.016,11.7l-68.874,68.68
					C1076.227,2909.169,1074.901,2909.909,1073.471,2910.269z"/>
			</g>
			<g>
				
					<linearGradient id="SVGID_00000074441108401838695730000012281191229821390220_" gradientUnits="userSpaceOnUse" x1="1257.4875" y1="2324.3625" x2="1144.0005" y2="2598.0662">
					<stop  offset="0" style="stop-color:#E1473D"/>
					<stop  offset="1" style="stop-color:#E9605A"/>
				</linearGradient>
				<path style="fill:url(#SVGID_00000074441108401838695730000012281191229821390220_);" d="M1072.881,2775.418
					c-0.857,0.215-1.751,0.294-2.651,0.225c-2.404-0.184-4.607-1.409-6.035-3.352l-22.08-30.061
					c-2.705-3.682-1.912-8.861,1.771-11.565c3.683-2.706,8.861-1.912,11.565,1.771l16.383,22.306l62.061-61.886
					c3.235-3.226,8.475-3.218,11.7,0.017c3.227,3.235,3.22,8.473-0.016,11.7l-68.874,68.68
					C1075.638,2774.318,1074.312,2775.059,1072.881,2775.418z"/>
			</g>
			<g>
				<g>
					
						<linearGradient id="SVGID_00000054973504663670430740000017159663207122041011_" gradientUnits="userSpaceOnUse" x1="1180.4468" y1="2779.4568" x2="1184.1527" y2="2680.0181" gradientTransform="matrix(0.9698 -0.2439 0.2439 0.9698 -601.6001 247.654)">
						<stop  offset="0" style="stop-color:#FF928E"/>
						<stop  offset="1" style="stop-color:#FE7062"/>
					</linearGradient>
					<path style="fill:url(#SVGID_00000054973504663670430740000017159663207122041011_);" d="M1248.427,2649.457
						c-2.45,0.616-5.154-0.03-7.075-1.942l-71.653-71.291c-2.915-2.9-2.927-7.615-0.027-10.53c2.901-2.916,7.616-2.927,10.53-0.027
						l71.653,71.291c2.915,2.9,2.927,7.615,0.027,10.53C1250.893,2648.481,1249.694,2649.138,1248.427,2649.457z"/>
				</g>
				<g>
					
						<linearGradient id="SVGID_00000137832579561073292080000017257584511436322964_" gradientUnits="userSpaceOnUse" x1="-3198.2539" y1="1794.6115" x2="-3194.5479" y2="1695.1711" gradientTransform="matrix(-0.9817 -0.1902 -0.1902 0.9817 -1594.4536 282.0623)">
						<stop  offset="0" style="stop-color:#FF928E"/>
						<stop  offset="1" style="stop-color:#FE7062"/>
					</linearGradient>
					<path style="fill:url(#SVGID_00000137832579561073292080000017257584511436322964_);" d="M1176.337,2647.847
						c2.48,0.481,5.144-0.313,6.957-2.328l67.628-75.119c2.752-3.056,2.504-7.765-0.552-10.516
						c-3.057-2.752-7.765-2.504-10.516,0.552l-67.628,75.12c-2.752,3.056-2.504,7.764,0.552,10.516
						C1173.821,2647.009,1175.054,2647.599,1176.337,2647.847z"/>
				</g>
			</g>
			<g>
				<g>
					
						<linearGradient id="SVGID_00000177451841630171721960000004855956422168987788_" gradientUnits="userSpaceOnUse" x1="1243.3114" y1="3067.3696" x2="1247.0173" y2="2967.9309" gradientTransform="matrix(0.9698 -0.2439 0.2439 0.9698 -601.6001 247.654)">
						<stop  offset="0" style="stop-color:#E1473D"/>
						<stop  offset="1" style="stop-color:#E9605A"/>
					</linearGradient>
					<path style="fill:url(#SVGID_00000177451841630171721960000004855956422168987788_);" d="M1379.615,2913.342
						c-2.45,0.616-5.154-0.03-7.075-1.942l-71.653-71.291c-2.915-2.9-2.927-7.615-0.027-10.53c2.901-2.916,7.616-2.927,10.53-0.027
						l71.653,71.291c2.915,2.9,2.927,7.615,0.027,10.53C1382.081,2912.367,1380.882,2913.023,1379.615,2913.342z"/>
				</g>
				<g>
					
						<linearGradient id="SVGID_00000155826422569605495590000011744560207613115048_" gradientUnits="userSpaceOnUse" x1="-3377.248" y1="2028.7365" x2="-3373.5422" y2="1929.2961" gradientTransform="matrix(-0.9817 -0.1902 -0.1902 0.9817 -1594.4536 282.0623)">
						<stop  offset="0" style="stop-color:#E1473D"/>
						<stop  offset="1" style="stop-color:#E9605A"/>
					</linearGradient>
					<path style="fill:url(#SVGID_00000155826422569605495590000011744560207613115048_);" d="M1307.525,2911.732
						c2.48,0.48,5.144-0.313,6.957-2.328l67.628-75.12c2.752-3.056,2.504-7.765-0.552-10.516c-3.057-2.752-7.765-2.504-10.516,0.552
						l-67.628,75.12c-2.752,3.056-2.504,7.764,0.552,10.516C1305.009,2910.894,1306.242,2911.484,1307.525,2911.732z"/>
				</g>
			</g>
		</g>
		<g>
			<path style="fill:#91B3FA;" d="M1690.584,3025.591c0,0-93.024-104.383-77.902-203.06c15.121-98.677,90.611-86.906,124.201-28.555
				c33.59,58.351,63.787,50.341,43.83-4.517c-19.956-54.859-44.968-90.565-3.615-145.175c41.353-54.609,45.64-77.813,22.405-126.541
				c-23.234-48.728-52.412-117.772,40.041-142.408c92.453-24.636,184.554,51.054,162.993,150.114
				c-21.56,99.061-34.51,109.851-4.815,146.545c29.695,36.694,17.32,51.765,13.112,75.649c-4.208,23.884,41.159,29.475,40.193-4.165
				c-0.966-33.64-58.676-113.04-19.287-150.083c39.388-37.042,116.591-37.442,136.362,48.208
				c19.771,85.651-43.577,124.142-40.422,155.12c3.154,30.978,37.175-15.995,66.809,15.584
				c29.633,31.579-10.265,56.384-39.625,73.497c-29.361,17.112-73.633,47.783-31.507,70.055
				c42.127,22.272,82.013,0.958,56.207,69.732H1690.584z"/>
			<path style="fill:#BDD0FB;" d="M1881.824,2446.768c3.036,1.44,5.699,3.245,8.296,5.181c2.585,1.939,4.97,4.092,7.189,6.377
				c4.481,4.546,8.265,9.665,11.346,15.109c6.18,10.906,9.486,23.046,10.587,35.198c0.194,1.523,0.251,3.044,0.333,4.568
				c0.063,1.524,0.168,3.052,0.126,4.573l-0.027,4.573l-0.248,4.558l-0.138,2.28l-0.25,2.266l-0.509,4.536
				c-0.51,2.991-0.867,6.024-1.513,8.992c-0.613,2.976-1.218,5.961-2.023,8.893l-1.136,4.42l-1.18,4.272l-4.751,17.055
				c-6.29,22.73-12.35,45.45-17.113,68.289c-4.633,22.824-7.84,45.898-7.117,68.696c0.166,5.693,0.589,11.364,1.412,16.96
				c0.791,5.6,1.883,11.152,3.487,16.552c1.583,5.403,3.531,10.702,6.016,15.772c2.76,5.739,4.914,11.692,6.6,17.59
				c3.179,11.844,5.057,23.688,6.491,35.484c1.39,11.8,2.47,23.556,3.327,35.293c1.805,23.455,3.352,46.838,7.14,69.897
				c0.478,2.881,0.984,5.757,1.592,8.613c0.533,2.873,1.229,5.708,1.888,8.553c0.609,2.861,1.487,5.647,2.218,8.481
				c0.414,1.402,0.885,2.787,1.324,4.184c0.452,1.392,0.866,2.799,1.417,4.158l1.56,4.116c0.522,1.373,1.183,2.69,1.768,4.04
				c1.129,2.724,2.61,5.286,3.963,7.925c3.02,5.112,6.563,9.99,10.888,14.343l-1.055,0.931c-4.796-4.142-8.877-8.909-12.438-13.97
				c-3.395-5.137-6.359-10.516-8.763-16.074c-4.956-11.085-8.215-22.66-10.891-34.266c-5.344-23.25-7.88-46.797-10.763-70.13
				c-1.465-11.667-2.764-23.316-4.559-34.843c-1.78-11.516-4.007-22.934-7.327-33.869c-1.754-5.442-3.719-10.67-6.262-15.693
				c-2.906-5.653-5.191-11.514-7.053-17.443c-1.884-5.931-3.195-11.959-4.171-17.996c-1.008-6.039-1.581-12.1-1.88-18.146
				c-1.133-24.228,2.235-48.077,6.765-71.473c4.627-23.409,10.881-46.419,17.874-69.155c1.768-5.68,3.54-11.356,5.375-17.011
				l1.384-4.236l1.266-4.127c0.901-2.744,1.574-5.524,2.312-8.297c0.78-2.768,1.271-5.57,1.927-8.359l0.727-4.206
				c0.257-1.403,0.482-2.807,0.642-4.215c0.876-5.628,1.09-11.283,1.149-16.934c0.021-5.654-0.503-11.298-1.582-16.856
				c-1.11-5.548-2.623-11.057-4.878-16.357c-1.162-2.631-2.414-5.245-3.889-7.762c-1.407-2.554-3.046-5.005-4.82-7.385
				c-3.568-4.72-7.792-9.225-12.808-12.788L1881.824,2446.768z"/>
			<path style="fill:#BDD0FB;" d="M1683.788,2800.346c2.774,18.473,6.718,36.788,11.536,54.854
				c2.424,9.032,5.093,18.004,8.047,26.891c0.7,2.232,1.532,4.428,2.291,6.643c0.753,2.217,1.581,4.412,2.403,6.607
				c1.57,4.414,3.347,8.762,5.077,13.123c1.861,4.316,3.668,8.651,5.7,12.901c1.882,4.308,4.04,8.505,6.124,12.732
				c4.376,8.366,8.995,16.625,14.128,24.636c5.113,8.021,10.769,15.748,16.787,23.276c6.142,7.446,12.828,14.525,19.906,21.395
				l-1.002,0.976c-8.196-5.903-15.739-12.56-22.693-19.691c-6.831-7.218-13.075-14.883-18.784-22.855
				c-5.51-8.073-10.709-16.329-15.194-24.89c-2.183-4.3-4.439-8.576-6.413-12.954c-2.053-4.352-3.843-8.79-5.703-13.204
				c-1.723-4.457-3.49-8.899-5.046-13.401c-0.82-2.239-1.565-4.499-2.277-6.765c-0.71-2.268-1.49-4.517-2.138-6.799
				c-2.808-9.074-5.117-18.259-7.111-27.487c-3.916-18.464-6.656-37.124-7.119-55.91L1683.788,2800.346z"/>
		</g>
		<g>
			
				<linearGradient id="SVGID_00000155829781684161315180000017749250337352700052_" gradientUnits="userSpaceOnUse" x1="2143.4238" y1="1814.1613" x2="2305.8657" y2="2379.3718">
				<stop  offset="0" style="stop-color:#FEBBBA"/>
				<stop  offset="1" style="stop-color:#FF928E"/>
			</linearGradient>
			<path style="fill:url(#SVGID_00000155829781684161315180000017749250337352700052_);" d="M2164.235,2051.464
				c0,0-47.577,209.125,144.814,329.075l45.861-23.621c0,0-158.399-136.561-170.193-289.513l70.011-20.357l26.542-42.861
				L2164.235,2051.464z"/>
			<g>
				
					<linearGradient id="SVGID_00000002350069204578385060000007912824072349643185_" gradientUnits="userSpaceOnUse" x1="2610.0732" y1="1721.2529" x2="1780.0598" y2="2135.1475">
					<stop  offset="0" style="stop-color:#FF928E"/>
					<stop  offset="1" style="stop-color:#FE7062"/>
				</linearGradient>
				<path style="fill:url(#SVGID_00000002350069204578385060000007912824072349643185_);" d="M2018.512,1791.572l354.357,45.307
					c11.65,1.487,19.65,12.456,17.518,24l-37.538,204.074c-2.123,11.559-12.813,18.426-24.461,16.864l-379.2-50.847
					c-11.646-1.562-20.149-10.999-19.156-22.706l12.983-153.312L2018.512,1791.572z"/>
				
					<linearGradient id="SVGID_00000049932637713111082260000012394185680180746409_" gradientUnits="userSpaceOnUse" x1="1391.9215" y1="113.9163" x2="1952.6531" y2="1741.0426">
					<stop  offset="0" style="stop-color:#E1473D"/>
					<stop  offset="1" style="stop-color:#E9605A"/>
				</linearGradient>
				<path style="fill:url(#SVGID_00000049932637713111082260000012394185680180746409_);" d="M1994.327,1860.145
					c11.589,1.14,21.788-7.611,22.422-19.238l2.645-48.544l-76.476,62.782L1994.327,1860.145z"/>
				<g>
					<path style="opacity:0.58;fill:#FFFFFF;" d="M2027.796,1867.779l285.977,38.346c8.273,1.109,14.38,6.479,13.64,11.995
						c-0.74,5.515-8.046,9.087-16.319,7.978l-285.977-38.346c-8.273-1.109-14.38-6.48-13.641-11.995
						C2012.217,1870.241,2019.523,1866.669,2027.796,1867.779z"/>
					<path style="opacity:0.58;fill:#FFFFFF;" d="M2019.883,1926.79l285.977,38.346c8.273,1.109,14.38,6.48,13.641,11.995
						s-8.046,9.087-16.319,7.978l-285.977-38.346c-8.273-1.109-14.38-6.48-13.641-11.995
						C2004.304,1929.252,2011.61,1925.68,2019.883,1926.79z"/>
				</g>
			</g>
			
				<linearGradient id="SVGID_00000009570776285176287060000015300468940838338458_" gradientUnits="userSpaceOnUse" x1="289.3738" y1="2978.0515" x2="470.4673" y2="2978.0515" gradientTransform="matrix(1 0 0 1 2107.7542 0)">
				<stop  offset="0" style="stop-color:#FEBBBA"/>
				<stop  offset="1" style="stop-color:#FF928E"/>
			</linearGradient>
			<path style="fill:url(#SVGID_00000009570776285176287060000015300468940838338458_);" d="M2397.128,2810.875
				c0,0,96.875,211.14,147.701,298.594c0,0,10.095,55.028,0,72.331l-8.603,3.824l40.151-1.195c0,0,3.566-74.018,0.781-78.152
				c-2.786-4.134-8.357-3.864-8.357-3.864s-17.216-136.397-67.075-165.507l-48.32-166.428L2397.128,2810.875z"/>
			
				<linearGradient id="SVGID_00000159432862614152752810000011459867849248784272_" gradientUnits="userSpaceOnUse" x1="538.2911" y1="2573.0735" x2="448.6085" y2="3156.0083" gradientTransform="matrix(1 0 0 1 2107.7542 0)">
				<stop  offset="0" style="stop-color:#4F52FF"/>
				<stop  offset="1" style="stop-color:#4042E2"/>
			</linearGradient>
			<path style="fill:url(#SVGID_00000159432862614152752810000011459867849248784272_);" d="M2519.078,3195.99
				c-0.059,0.969,31.352,0.526,48.416,0.215c6.3-0.115,11.672-4.544,13.015-10.7l12.886-67.7c1.225-6.434-2.86-12.683-9.245-14.142
				l-7.192-1.644c0,0-10.261,14.075-7.031,27.327c3.23,13.252,6.104,47.58-2.058,51.579c-8.162,4.001-31.642,4.699-31.642,4.699
				S2519.615,3187.271,2519.078,3195.99z"/>
			
				<linearGradient id="SVGID_00000093161235615000221420000012520384643405708678_" gradientUnits="userSpaceOnUse" x1="348.5321" y1="2543.8779" x2="258.8488" y2="3126.8171" gradientTransform="matrix(1 0 0 1 2107.7542 0)">
				<stop  offset="0" style="stop-color:#4F52FF"/>
				<stop  offset="1" style="stop-color:#4042E2"/>
			</linearGradient>
			<path style="fill:url(#SVGID_00000093161235615000221420000012520384643405708678_);" d="M2305.308,3197.219
				c-3.177,1.81-1.867,6.66,1.789,6.624c28.555-0.287,92.542-1.19,98.228-3.555c7.341-3.052-2.676-29.431-13.216-38.358
				l-58.203,18.995L2305.308,3197.219z"/>
			
				<linearGradient id="SVGID_00000109712112794669702440000001404531230013852599_" gradientUnits="userSpaceOnUse" x1="179.4874" y1="2991.5168" x2="284.355" y2="2991.5168" gradientTransform="matrix(1 0 0 1 2107.7542 0)">
				<stop  offset="0" style="stop-color:#FEBBBA"/>
				<stop  offset="1" style="stop-color:#FF928E"/>
			</linearGradient>
			<path style="fill:url(#SVGID_00000109712112794669702440000001404531230013852599_);" d="M2287.241,2797.409
				c0,0,62.603,302.849,80.312,361.925l-41.894,26.29c0,0,20.994-3.571,36.562-4.699c15.568-1.127,29.888-18.995,29.888-18.995
				l-5.019-8.005c0,0-15.699-301.2-11.877-335.402L2287.241,2797.409z"/>
			
				<linearGradient id="SVGID_00000092437044969588658300000006707243609679954088_" gradientUnits="userSpaceOnUse" x1="2209.667" y1="2400.5044" x2="2116.2068" y2="1957.6813">
				<stop  offset="0" style="stop-color:#FEBBBA"/>
				<stop  offset="1" style="stop-color:#FF928E"/>
			</linearGradient>
			<path style="fill:url(#SVGID_00000092437044969588658300000006707243609679954088_);" d="M2131.84,2091.013
				c0,0-8.635,157.54,134.795,238.042l-34.532,78.756c0,0-129.856-78.543-125.054-292.765c0.138-6.147-2.08-12.117-6.095-16.775
				l-27.599-32.018c-10.515-12.198-14.445-28.747-10.536-44.37l3.633-14.521c1.216-4.862,6.753-7.201,11.086-4.684l2.886,1.676
				c9.188,5.337,16.466,13.427,20.804,23.125l13.551,30.293c5.063,11.316,16.734,18.186,29.084,17.119l8.38-0.723L2131.84,2091.013z
				"/>
			
				<linearGradient id="SVGID_00000182493978718176615040000018376785884870779549_" gradientUnits="userSpaceOnUse" x1="3169.0576" y1="2232.2219" x2="2368.0132" y2="2422.4697">
				<stop  offset="0" style="stop-color:#E1473D"/>
				<stop  offset="1" style="stop-color:#E9605A"/>
			</linearGradient>
			<path style="fill:url(#SVGID_00000182493978718176615040000018376785884870779549_);" d="M2261.643,2317.249
				c23.996,6.655,105.289,28.04,156.039,27.166l-31.16,175.838l2.48,28.68l-101.594-0.455c0,0-28.599-66.42-51.163-99.533
				c-6.517-9.564-1.667-20.971,2.027-31.939l-5.075-3.379c-5.164-3.438-7.403-9.896-5.476-15.793l24.74-75.693
				C2253.746,2318.326,2257.763,2316.174,2261.643,2317.249z"/>
			<path style="fill:#7D97F4;" d="M2279.268,2533.47l1.998,17.375c0,0-28.71,85.98,14.355,286.797c0,0,93.27,26.423,169.927-36.804
				c0,0-21.624-189.541-27.53-198.37c-29.419-43.976-49.018-53.536-49.018-53.536l-0.884-18.982
				C2388.118,2529.951,2306.128,2544.775,2279.268,2533.47z"/>
			
				<linearGradient id="SVGID_00000015324347519186978590000012397289304902807715_" gradientUnits="userSpaceOnUse" x1="211.2782" y1="2305.5239" x2="275.4515" y2="2305.5239" gradientTransform="matrix(1 0 0 1 2107.7542 0)">
				<stop  offset="0" style="stop-color:#FEBBBA"/>
				<stop  offset="1" style="stop-color:#FF928E"/>
			</linearGradient>
			<path style="fill:url(#SVGID_00000015324347519186978590000012397289304902807715_);" d="M2319.037,2331.421
				c-0.356-0.47,21.209-65.111,21.209-65.111l30.892,2.802l12.068,73.332C2383.206,2342.444,2334.792,2352.216,2319.037,2331.421z"
				/>
			
				<linearGradient id="SVGID_00000084497780893976407450000011194460452168552085_" gradientUnits="userSpaceOnUse" x1="313.27" y1="2222.5933" x2="780.3692" y2="2254.356" gradientTransform="matrix(1 0 0 1 2107.7542 0)">
				<stop  offset="0" style="stop-color:#FEBBBA"/>
				<stop  offset="1" style="stop-color:#FF928E"/>
			</linearGradient>
			<path style="fill:url(#SVGID_00000084497780893976407450000011194460452168552085_);" d="M2363.742,2164.371
				c-2.06,1.282-66.011,27.712-52.271,94.104c0.812,3.923,3.43,7.249,7.09,8.881c9.384,4.186,29.588,11.353,53.752,8.897
				c33.502-3.405,55.454-61.866,54.521-78.877C2425.9,2180.364,2384.158,2151.658,2363.742,2164.371z"/>
			
				<linearGradient id="SVGID_00000032635503079997788050000005431737064117882515_" gradientUnits="userSpaceOnUse" x1="1668.4089" y1="2213.5542" x2="1417.0637" y2="2716.2434" gradientTransform="matrix(-1 0 0 1 3947.7605 0)">
				<stop  offset="0" style="stop-color:#09005D"/>
				<stop  offset="1" style="stop-color:#1A0F91"/>
			</linearGradient>
			<path style="fill:url(#SVGID_00000032635503079997788050000005431737064117882515_);" d="M2363.742,2164.371
				c0,0,42.09,36.663,28.441,61.036s-8.978,21.936-8.978,21.936s18.239,0.487,4.103,12.674
				c-14.136,12.186-22.761,4.387-23.567,18.523c-0.806,14.136-153.542,268.588-62.55,332.282
				c90.992,63.694,213.18,45.496,246.977-50.696c33.797-96.191-76.043-200.828-72.143-283.372
				c1.76-37.27-13.937-76.109-36.785-105.055c-10.64-13.48-24.017-28.769-39.83-36.173c-7.651-3.582-16.787-5.26-24.241-0.212
				C2368.921,2139.545,2360.6,2156.902,2363.742,2164.371z"/>
			<g>
				<path style="fill:#BDD0FB;" d="M2431.178,2626.928c-0.447,0-0.818-0.355-0.834-0.805c-0.016-0.46,0.346-0.848,0.805-0.864
					c40.804-1.457,85.415-34.513,99.445-73.69c15.177-42.365-3.67-86.569-20.298-125.571l-2.8-6.575
					c-6.959-16.428-14.619-32.86-22.029-48.751c-5-10.728-10.17-21.82-15.079-32.812c-0.186-0.42,0.003-0.913,0.424-1.102
					c0.421-0.183,0.913,0,1.102,0.424c4.902,10.979,10.069,22.061,15.066,32.782c7.416,15.904,15.082,32.349,22.055,48.806
					l2.797,6.575c16.748,39.281,35.729,83.805,20.333,126.783c-14.241,39.764-59.53,73.319-100.957,74.799H2431.178z"/>
				<path style="fill:#BDD0FB;" d="M2370.507,2162.582c-0.039,0-0.081-0.003-0.12-0.01c-0.457-0.065-0.773-0.492-0.704-0.945
					c2.246-15.187,15.734-21.533,16.304-21.797c0.411-0.196,0.909-0.01,1.108,0.411c0.192,0.42,0.006,0.916-0.411,1.108
					c-0.134,0.059-13.241,6.249-15.353,20.519C2371.27,2162.285,2370.915,2162.582,2370.507,2162.582z"/>
			</g>
		</g>
	</g>
</g>
</svg>
