<?xml version="1.0" encoding="UTF-8"?>
<svg xmlns="http://www.w3.org/2000/svg" xmlns:xlink="http://www.w3.org/1999/xlink" width="500px" height="5000px" viewBox="0 0 500 5000" version="1.1">
<defs>
<filter id="alpha" filterUnits="objectBoundingBox" x="0%" y="0%" width="100%" height="100%">
  <feColorMatrix type="matrix" in="SourceGraphic" values="0 0 0 0 1 0 0 0 0 1 0 0 0 0 1 0 0 0 1 0"/>
</filter>
<mask id="mask0">
  <g filter="url(#alpha)">
<rect x="0" y="0" width="150" height="1500" style="fill:rgb(0%,0%,0%);fill-opacity:0.6;stroke:none;"/>
  </g>
</mask>
<clipPath id="clip1">
  <rect x="0" y="0" width="150" height="1500"/>
</clipPath>
<g id="surface5" clip-path="url(#clip1)">
<path style=" stroke:none;fill-rule:nonzero;fill:rgb(100%,100%,100%);fill-opacity:1;" d="M 127.035156 62.175781 C 127.019531 62.199219 127.003906 62.21875 126.980469 62.238281 L 126.8125 62.414062 C 126.664062 62.566406 126.441406 62.796875 126.136719 63.070312 C 125.773438 63.410156 125.382812 63.71875 124.976562 64.003906 C 124.4375 64.390625 123.832031 64.679688 123.191406 64.855469 C 122.40625 65.050781 121.582031 65.035156 120.808594 64.808594 C 119.929688 64.539062 119.085938 64.164062 118.292969 63.699219 C 117.429688 63.183594 116.519531 62.757812 115.570312 62.425781 C 114.554688 62.074219 113.4375 62.132812 112.460938 62.582031 C 111.457031 63.035156 110.601562 63.726562 109.667969 64.222656 C 109.4375 64.351562 109.191406 64.453125 108.953125 64.558594 C 108.714844 64.652344 108.46875 64.734375 108.21875 64.804688 C 107.738281 64.941406 107.246094 65.027344 106.75 65.058594 C 105.015625 65.183594 103.289062 64.710938 101.863281 63.714844 C 101.339844 63.3125 100.84375 62.875 100.386719 62.402344 C 100.039062 62.054688 99.65625 61.742188 99.242188 61.46875 C 98.886719 61.246094 98.488281 61.097656 98.074219 61.03125 C 98.183594 61.035156 98.292969 61.046875 98.398438 61.066406 C 98.710938 61.132812 99.003906 61.25 99.277344 61.414062 C 99.695312 61.683594 100.089844 61.992188 100.445312 62.339844 C 100.90625 62.804688 101.402344 63.230469 101.925781 63.625 C 103.335938 64.589844 105.035156 65.046875 106.738281 64.914062 C 107.226562 64.878906 107.710938 64.796875 108.179688 64.660156 C 108.421875 64.59375 108.664062 64.511719 108.898438 64.417969 C 109.128906 64.3125 109.367188 64.21875 109.59375 64.089844 C 110.515625 63.601562 111.367188 62.90625 112.398438 62.4375 C 113.410156 61.972656 114.5625 61.917969 115.617188 62.277344 C 116.574219 62.617188 117.492188 63.050781 118.363281 63.574219 C 119.144531 64.035156 119.972656 64.410156 120.839844 64.683594 C 121.59375 64.910156 122.398438 64.933594 123.164062 64.75 C 123.796875 64.578125 124.390625 64.304688 124.929688 63.933594 C 125.335938 63.660156 125.726562 63.359375 126.097656 63.03125 C 126.394531 62.765625 126.632812 62.546875 126.792969 62.402344 L 126.96875 62.234375 C 127.011719 62.191406 127.03125 62.171875 127.035156 62.175781 Z M 127.035156 62.175781 "/>
</g>
<mask id="mask1">
  <g filter="url(#alpha)">
<rect x="0" y="0" width="150" height="1500" style="fill:rgb(0%,0%,0%);fill-opacity:0.2;stroke:none;"/>
  </g>
</mask>
<clipPath id="clip2">
  <rect x="0" y="0" width="150" height="1500"/>
</clipPath>
<g id="surface8" clip-path="url(#clip2)">
<path style=" stroke:none;fill-rule:nonzero;fill:rgb(0%,0%,0%);fill-opacity:1;" d="M 97.351562 66.777344 L 109.429688 69.054688 L 108.03125 71.324219 L 107.664062 71.332031 Z M 97.351562 66.777344 "/>
</g>
<mask id="mask2">
  <g filter="url(#alpha)">
<rect x="0" y="0" width="150" height="1500" style="fill:rgb(0%,0%,0%);fill-opacity:0.6;stroke:none;"/>
  </g>
</mask>
<clipPath id="clip3">
  <rect x="0" y="0" width="150" height="1500"/>
</clipPath>
<g id="surface11" clip-path="url(#clip3)">
<path style=" stroke:none;fill-rule:nonzero;fill:rgb(100%,100%,100%);fill-opacity:1;" d="M 133.902344 64.390625 C 133.910156 64.453125 133.910156 64.515625 133.902344 64.574219 C 133.894531 64.753906 133.878906 64.929688 133.847656 65.101562 C 133.449219 67.371094 131.441406 69 129.140625 68.925781 C 128.53125 68.886719 127.925781 68.777344 127.339844 68.59375 C 126.742188 68.425781 126.15625 68.234375 125.582031 68.121094 C 125.035156 68 124.472656 67.96875 123.914062 68.035156 C 122.304688 68.226562 120.867188 69.132812 120 70.5 L 119.84375 70.761719 C 119.804688 70.835938 119.773438 70.902344 119.746094 70.960938 C 119.71875 71.015625 119.6875 71.070312 119.652344 71.121094 C 119.667969 71.0625 119.691406 71.003906 119.714844 70.945312 C 119.742188 70.886719 119.769531 70.816406 119.800781 70.738281 L 119.949219 70.46875 C 120.273438 69.902344 120.707031 69.402344 121.226562 69 C 122 68.390625 122.925781 68.007812 123.898438 67.890625 C 124.472656 67.820312 125.050781 67.847656 125.617188 67.972656 C 126.199219 68.085938 126.785156 68.269531 127.390625 68.445312 C 127.964844 68.625 128.558594 68.734375 129.160156 68.773438 C 130.695312 68.824219 132.15625 68.101562 133.042969 66.847656 C 133.410156 66.324219 133.667969 65.726562 133.800781 65.101562 C 133.886719 64.648438 133.882812 64.390625 133.902344 64.390625 Z M 133.902344 64.390625 "/>
</g>
<mask id="mask3">
  <g filter="url(#alpha)">
<rect x="0" y="0" width="150" height="1500" style="fill:rgb(0%,0%,0%);fill-opacity:0.6;stroke:none;"/>
  </g>
</mask>
<clipPath id="clip4">
  <rect x="0" y="0" width="150" height="1500"/>
</clipPath>
<g id="surface14" clip-path="url(#clip4)">
<path style=" stroke:none;fill-rule:nonzero;fill:rgb(100%,100%,100%);fill-opacity:1;" d="M 101.980469 69.082031 C 101.953125 69.308594 101.882812 69.527344 101.777344 69.730469 C 101.488281 70.285156 101.035156 70.742188 100.476562 71.03125 C 100.101562 71.238281 99.695312 71.382812 99.277344 71.464844 C 98.785156 71.539062 98.289062 71.539062 97.800781 71.464844 C 96.691406 71.269531 95.617188 70.910156 94.617188 70.394531 C 93.621094 69.890625 92.578125 69.488281 91.5 69.1875 C 91.035156 69.070312 90.554688 69.015625 90.070312 69.023438 C 89.652344 69.035156 89.234375 69.105469 88.835938 69.234375 C 88.25 69.40625 87.722656 69.738281 87.3125 70.1875 C 87.171875 70.359375 87.039062 70.542969 86.917969 70.726562 C 87 70.515625 87.117188 70.320312 87.265625 70.148438 C 87.671875 69.671875 88.203125 69.316406 88.804688 69.128906 C 89.210938 68.992188 89.636719 68.910156 90.066406 68.894531 C 90.558594 68.878906 91.054688 68.933594 91.53125 69.050781 C 92.617188 69.347656 93.664062 69.753906 94.660156 70.269531 C 95.648438 70.777344 96.707031 71.136719 97.800781 71.335938 C 98.273438 71.410156 98.757812 71.410156 99.234375 71.335938 C 99.648438 71.265625 100.046875 71.128906 100.414062 70.933594 C 100.960938 70.664062 101.414062 70.234375 101.714844 69.703125 C 101.816406 69.503906 101.90625 69.292969 101.980469 69.082031 Z M 101.980469 69.082031 "/>
</g>
<mask id="mask4">
  <g filter="url(#alpha)">
<rect x="0" y="0" width="150" height="1500" style="fill:rgb(0%,0%,0%);fill-opacity:0.6;stroke:none;"/>
  </g>
</mask>
<clipPath id="clip5">
  <rect x="0" y="0" width="150" height="1500"/>
</clipPath>
<g id="surface17" clip-path="url(#clip5)">
<path style=" stroke:none;fill-rule:nonzero;fill:rgb(100%,100%,100%);fill-opacity:1;" d="M 111.25 75.683594 C 111.25 75.710938 110.765625 75.632812 109.984375 75.617188 C 109.53125 75.613281 109.074219 75.636719 108.621094 75.691406 C 108.066406 75.757812 107.519531 75.867188 106.980469 76.015625 C 106.445312 76.171875 105.921875 76.363281 105.414062 76.597656 C 105 76.789062 104.601562 77.007812 104.214844 77.253906 C 103.558594 77.671875 103.191406 77.992188 103.171875 77.96875 C 103.242188 77.878906 103.324219 77.800781 103.414062 77.730469 C 103.648438 77.523438 103.894531 77.335938 104.152344 77.164062 C 104.535156 76.902344 104.9375 76.667969 105.355469 76.46875 C 106.375 75.972656 107.472656 75.660156 108.601562 75.546875 C 109.058594 75.5 109.523438 75.488281 109.984375 75.511719 C 110.296875 75.519531 110.605469 75.550781 110.914062 75.605469 C 111.027344 75.617188 111.140625 75.644531 111.25 75.683594 Z M 111.25 75.683594 "/>
</g>
<mask id="mask5">
  <g filter="url(#alpha)">
<rect x="0" y="0" width="150" height="1500" style="fill:rgb(0%,0%,0%);fill-opacity:0.2;stroke:none;"/>
  </g>
</mask>
<clipPath id="clip6">
  <rect x="0" y="0" width="150" height="1500"/>
</clipPath>
<g id="surface20" clip-path="url(#clip6)">
<path style=" stroke:none;fill-rule:nonzero;fill:rgb(0%,0%,0%);fill-opacity:1;" d="M 113.941406 58.199219 C 113.578125 59.207031 114.121094 60.300781 114.648438 61.230469 C 114.984375 61.898438 115.410156 62.515625 115.914062 63.070312 C 116.425781 63.628906 117.140625 63.953125 117.898438 63.96875 C 118.878906 63.9375 119.753906 63.214844 120.734375 63.269531 C 121.402344 63.308594 121.984375 63.703125 122.535156 64.074219 C 123.472656 64.753906 124.488281 65.316406 125.558594 65.75 C 126.640625 66.183594 127.832031 66.257812 128.960938 65.964844 C 130.097656 65.648438 130.988281 64.765625 131.316406 63.632812 "/>
</g>
</defs>
<g id="surface1">
<path style=" stroke:none;fill-rule:nonzero;fill:rgb(96.078431%,96.078431%,96.078431%);fill-opacity:1;" d="M 72.71875 32.140625 L 89.730469 32.140625 L 89.730469 55.417969 L 72.71875 55.417969 Z M 72.71875 32.140625 "/>
<path style=" stroke:none;fill-rule:nonzero;fill:rgb(96.078431%,96.078431%,96.078431%);fill-opacity:1;" d="M 109.570312 21.253906 L 166.238281 21.253906 L 166.238281 58.105469 L 109.570312 58.105469 Z M 109.570312 21.253906 "/>
<path style=" stroke:none;fill-rule:nonzero;fill:rgb(87.843137%,87.843137%,87.843137%);fill-opacity:1;" d="M 145.613281 38.125 C 145.613281 42.382812 142.164062 45.835938 137.902344 45.835938 C 133.644531 45.835938 130.195312 42.382812 130.195312 38.125 C 130.195312 33.867188 133.644531 30.414062 137.902344 30.414062 C 142.164062 30.414062 145.613281 33.867188 145.613281 38.125 Z M 145.613281 38.125 "/>
<path style=" stroke:none;fill-rule:nonzero;fill:rgb(96.078431%,96.078431%,96.078431%);fill-opacity:1;" d="M 140.496094 38.125 L 138.484375 39.285156 L 136.46875 40.449219 L 136.46875 35.800781 L 138.484375 36.960938 Z M 140.496094 38.125 "/>
<path style=" stroke:none;fill-rule:nonzero;fill:rgb(87.843137%,87.843137%,87.843137%);fill-opacity:1;" d="M 109.570312 51.484375 L 166.238281 51.484375 L 166.238281 58.105469 L 109.570312 58.105469 Z M 109.570312 51.484375 "/>
<path style=" stroke:none;fill-rule:nonzero;fill:rgb(96.078431%,96.078431%,96.078431%);fill-opacity:1;" d="M 115.078125 54.796875 L 114.261719 55.269531 L 113.441406 55.738281 L 113.441406 53.851562 L 114.261719 54.324219 Z M 115.078125 54.796875 "/>
<path style=" stroke:none;fill-rule:nonzero;fill:rgb(96.078431%,96.078431%,96.078431%);fill-opacity:1;" d="M 119.773438 54.644531 L 161.574219 54.644531 L 161.574219 54.945312 L 119.773438 54.945312 Z M 119.773438 54.644531 "/>
<path style=" stroke:none;fill-rule:nonzero;fill:rgb(96.078431%,96.078431%,96.078431%);fill-opacity:1;" d="M 120.621094 54.796875 C 120.621094 55.046875 120.472656 55.277344 120.238281 55.375 C 120.003906 55.472656 119.734375 55.417969 119.558594 55.242188 C 119.378906 55.0625 119.324219 54.792969 119.421875 54.558594 C 119.515625 54.328125 119.746094 54.175781 119.996094 54.175781 C 120.339844 54.175781 120.621094 54.453125 120.621094 54.796875 Z M 120.621094 54.796875 "/>
<path style=" stroke:none;fill-rule:nonzero;fill:rgb(96.078431%,96.078431%,96.078431%);fill-opacity:1;" d="M 151.328125 47.796875 L 206.050781 47.796875 C 206.957031 47.796875 207.695312 48.535156 207.695312 49.441406 L 207.695312 98.433594 C 207.695312 99.34375 206.957031 100.078125 206.050781 100.078125 L 151.328125 100.078125 C 150.417969 100.078125 149.683594 99.34375 149.683594 98.433594 L 149.683594 49.441406 C 149.683594 48.535156 150.417969 47.796875 151.328125 47.796875 Z M 151.328125 47.796875 "/>
<path style=" stroke:none;fill-rule:nonzero;fill:rgb(92.156863%,92.156863%,92.156863%);fill-opacity:1;" d="M 151.605469 47.796875 L 205.773438 47.796875 C 206.835938 47.796875 207.695312 48.65625 207.695312 49.71875 L 207.695312 53.632812 L 149.683594 53.632812 L 149.683594 49.71875 C 149.683594 48.65625 150.542969 47.796875 151.605469 47.796875 Z M 151.605469 47.796875 "/>
<path style=" stroke:none;fill-rule:nonzero;fill:rgb(96.078431%,96.078431%,96.078431%);fill-opacity:1;" d="M 17.59375 72.160156 L 87.382812 72.160156 L 87.382812 108.570312 C 87.382812 109.339844 86.757812 109.964844 85.988281 109.964844 L 18.988281 109.964844 C 18.214844 109.964844 17.59375 109.339844 17.59375 108.570312 Z M 17.59375 72.160156 "/>
<path style=" stroke:none;fill-rule:nonzero;fill:rgb(92.156863%,92.156863%,92.156863%);fill-opacity:1;" d="M 17.59375 72.160156 L 87.382812 72.160156 L 87.382812 79.183594 L 17.59375 79.183594 Z M 17.59375 72.160156 "/>
<path style=" stroke:none;fill-rule:nonzero;fill:rgb(98.039216%,98.039216%,98.039216%);fill-opacity:1;" d="M 22.402344 75.6875 C 22.402344 75.992188 22.152344 76.238281 21.847656 76.238281 C 21.542969 76.238281 21.296875 75.992188 21.296875 75.6875 C 21.296875 75.382812 21.542969 75.136719 21.847656 75.136719 C 22.152344 75.136719 22.402344 75.382812 22.402344 75.6875 Z M 22.402344 75.6875 "/>
<path style=" stroke:none;fill-rule:nonzero;fill:rgb(98.039216%,98.039216%,98.039216%);fill-opacity:1;" d="M 25.703125 75.6875 C 25.703125 75.992188 25.457031 76.238281 25.152344 76.238281 C 24.847656 76.238281 24.601562 75.992188 24.601562 75.6875 C 24.601562 75.382812 24.847656 75.136719 25.152344 75.136719 C 25.457031 75.136719 25.703125 75.382812 25.703125 75.6875 Z M 25.703125 75.6875 "/>
<path style=" stroke:none;fill-rule:nonzero;fill:rgb(98.039216%,98.039216%,98.039216%);fill-opacity:1;" d="M 29.007812 75.6875 C 29.007812 75.992188 28.761719 76.238281 28.453125 76.238281 C 28.148438 76.238281 27.902344 75.992188 27.902344 75.6875 C 27.902344 75.382812 28.148438 75.136719 28.453125 75.136719 C 28.761719 75.136719 29.007812 75.382812 29.007812 75.6875 Z M 29.007812 75.6875 "/>
<path style=" stroke:none;fill-rule:nonzero;fill:rgb(92.156863%,92.156863%,92.156863%);fill-opacity:1;" d="M 52.636719 84.847656 L 78.992188 84.847656 L 78.992188 85.804688 L 52.636719 85.804688 Z M 52.636719 84.847656 "/>
<path style=" stroke:none;fill-rule:nonzero;fill:rgb(92.156863%,92.156863%,92.156863%);fill-opacity:1;" d="M 52.636719 88.773438 L 78.992188 88.773438 L 78.992188 89.726562 L 52.636719 89.726562 Z M 52.636719 88.773438 "/>
<path style=" stroke:none;fill-rule:nonzero;fill:rgb(92.156863%,92.156863%,92.156863%);fill-opacity:1;" d="M 52.636719 92.695312 L 78.992188 92.695312 L 78.992188 93.652344 L 52.636719 93.652344 Z M 52.636719 92.695312 "/>
<path style=" stroke:none;fill-rule:nonzero;fill:rgb(92.156863%,92.156863%,92.156863%);fill-opacity:1;" d="M 52.636719 96.625 L 78.992188 96.625 L 78.992188 97.578125 L 52.636719 97.578125 Z M 52.636719 96.625 "/>
<path style=" stroke:none;fill-rule:nonzero;fill:rgb(92.156863%,92.156863%,92.156863%);fill-opacity:1;" d="M 52.636719 100.546875 L 65.8125 100.546875 L 65.8125 101.503906 L 52.636719 101.503906 Z M 52.636719 100.546875 "/>
<path style=" stroke:none;fill-rule:nonzero;fill:rgb(98.039216%,98.039216%,98.039216%);fill-opacity:1;" d="M 23.398438 84.179688 L 45.949219 84.179688 L 45.949219 102.945312 L 23.398438 102.945312 Z M 23.398438 84.179688 "/>
<path style=" stroke:none;fill-rule:nonzero;fill:rgb(92.156863%,92.156863%,92.156863%);fill-opacity:1;" d="M 23.359375 97.277344 L 30.023438 92.605469 L 34.675781 95.824219 L 41.984375 89.636719 L 45.949219 93.5625 L 45.949219 102.945312 L 23.398438 102.945312 Z M 23.359375 97.277344 "/>
<path style=" stroke:none;fill-rule:nonzero;fill:rgb(92.156863%,92.156863%,92.156863%);fill-opacity:1;" d="M 36.949219 89.636719 C 36.949219 90.679688 36.105469 91.527344 35.058594 91.527344 C 34.015625 91.527344 33.167969 90.679688 33.171875 89.636719 C 33.171875 88.589844 34.019531 87.746094 35.0625 87.746094 C 36.105469 87.75 36.949219 88.59375 36.949219 89.636719 Z M 36.949219 89.636719 "/>
<path style=" stroke:none;fill-rule:nonzero;fill:rgb(100%,100%,100%);fill-opacity:1;" d="M 70.621094 36.25 L 87.632812 36.25 L 87.632812 59.527344 L 70.621094 59.527344 Z M 70.621094 36.25 "/>
<path style=" stroke:none;fill-rule:nonzero;fill:rgb(14.901961%,19.607843%,21.960784%);fill-opacity:1;" d="M 89.894531 57.46875 L 89.867188 57.355469 C 89.851562 57.28125 89.824219 57.175781 89.796875 57.035156 C 89.730469 56.734375 89.636719 56.335938 89.515625 55.796875 C 89.28125 54.707031 88.933594 53.128906 88.492188 51.125 C 87.617188 47.125 86.390625 41.449219 84.914062 34.730469 L 85 34.785156 L 68.375 38.386719 L 68.4375 38.292969 C 70.265625 46.789062 71.960938 54.660156 73.335938 61.046875 L 73.261719 60.996094 L 85.339844 58.421875 L 88.703125 57.710938 L 89.605469 57.527344 L 89.902344 57.46875 C 89.902344 57.46875 89.808594 57.496094 89.605469 57.539062 L 88.730469 57.734375 L 85.390625 58.472656 L 73.285156 61.121094 L 73.222656 61.121094 L 73.222656 61.0625 C 71.839844 54.675781 70.132812 46.808594 68.292969 38.3125 L 68.292969 38.234375 L 68.367188 38.234375 L 84.992188 34.636719 L 85.0625 34.636719 L 85.078125 34.703125 C 86.515625 41.449219 87.734375 47.144531 88.59375 51.160156 C 89.015625 53.15625 89.351562 54.734375 89.578125 55.820312 C 89.695312 56.355469 89.777344 56.769531 89.839844 57.050781 L 89.902344 57.367188 C 89.902344 57.398438 89.898438 57.433594 89.894531 57.46875 Z M 89.894531 57.46875 "/>
<path style=" stroke:none;fill-rule:nonzero;fill:rgb(14.901961%,19.607843%,21.960784%);fill-opacity:1;" d="M 79.5 40.683594 C 79.5 40.726562 77.699219 41.152344 75.476562 41.632812 C 73.253906 42.117188 71.429688 42.472656 71.421875 42.429688 C 71.410156 42.386719 73.222656 41.964844 75.445312 41.480469 C 77.667969 40.996094 79.5 40.640625 79.5 40.683594 Z M 79.5 40.683594 "/>
<path style=" stroke:none;fill-rule:nonzero;fill:rgb(14.901961%,19.607843%,21.960784%);fill-opacity:1;" d="M 84.300781 41.71875 C 84.300781 41.761719 81.527344 42.394531 78.09375 43.136719 C 74.65625 43.878906 71.859375 44.449219 71.851562 44.40625 C 71.839844 44.363281 74.621094 43.726562 78.058594 42.988281 C 81.496094 42.246094 84.300781 41.675781 84.300781 41.71875 Z M 84.300781 41.71875 "/>
<path style=" stroke:none;fill-rule:nonzero;fill:rgb(14.901961%,19.607843%,21.960784%);fill-opacity:1;" d="M 84.753906 43.777344 C 84.753906 43.820312 81.984375 44.457031 78.546875 45.199219 C 75.109375 45.945312 72.316406 46.5 72.300781 46.46875 C 72.285156 46.441406 75.070312 45.792969 78.507812 45.046875 C 81.945312 44.304688 84.742188 43.738281 84.753906 43.777344 Z M 84.753906 43.777344 "/>
<path style=" stroke:none;fill-rule:nonzero;fill:rgb(14.901961%,19.607843%,21.960784%);fill-opacity:1;" d="M 85.199219 45.84375 C 85.199219 45.886719 82.429688 46.519531 78.992188 47.261719 C 75.558594 48.003906 72.757812 48.574219 72.75 48.53125 C 72.742188 48.488281 75.519531 47.851562 78.960938 47.113281 C 82.402344 46.371094 85.199219 45.800781 85.199219 45.84375 Z M 85.199219 45.84375 "/>
<path style=" stroke:none;fill-rule:nonzero;fill:rgb(14.901961%,19.607843%,21.960784%);fill-opacity:1;" d="M 85.644531 47.902344 C 85.644531 47.945312 82.875 48.582031 79.4375 49.324219 C 76 50.070312 73.199219 50.636719 73.199219 50.59375 C 73.199219 50.554688 75.96875 49.917969 79.40625 49.171875 C 82.84375 48.429688 85.636719 47.863281 85.644531 47.902344 Z M 85.644531 47.902344 "/>
<path style=" stroke:none;fill-rule:nonzero;fill:rgb(14.901961%,19.607843%,21.960784%);fill-opacity:1;" d="M 86.101562 49.96875 C 86.101562 50.011719 83.328125 50.644531 79.894531 51.386719 C 76.457031 52.128906 73.660156 52.699219 73.648438 52.65625 C 73.640625 52.613281 76.417969 51.976562 79.859375 51.234375 C 83.300781 50.488281 86.082031 49.925781 86.101562 49.96875 Z M 86.101562 49.96875 "/>
<path style=" stroke:none;fill-rule:nonzero;fill:rgb(14.901961%,19.607843%,21.960784%);fill-opacity:1;" d="M 86.535156 52.027344 C 86.535156 52.070312 83.765625 52.707031 80.328125 53.449219 C 76.890625 54.195312 74.101562 54.761719 74.101562 54.71875 C 74.101562 54.679688 76.867188 54.042969 80.308594 53.296875 C 83.746094 52.554688 86.527344 51.988281 86.535156 52.027344 Z M 86.535156 52.027344 "/>
<path style=" stroke:none;fill-rule:nonzero;fill:rgb(14.901961%,19.607843%,21.960784%);fill-opacity:1;" d="M 81.226562 55.335938 C 81.226562 55.378906 79.742188 55.738281 77.894531 56.136719 C 76.046875 56.535156 74.539062 56.824219 74.53125 56.78125 C 74.523438 56.738281 76.015625 56.382812 77.863281 55.984375 C 79.710938 55.585938 81.214844 55.292969 81.226562 55.335938 Z M 81.226562 55.335938 "/>
<path style=" stroke:none;fill-rule:nonzero;fill:rgb(14.901961%,19.607843%,21.960784%);fill-opacity:1;" d="M 63.78125 94.816406 C 63.75 94.371094 63.683594 93.925781 63.582031 93.492188 C 63.453125 92.988281 63.25 92.503906 62.980469 92.058594 C 62.625 91.464844 62.15625 90.949219 61.605469 90.53125 C 60.144531 89.425781 58.222656 89.136719 56.503906 89.769531 C 56.019531 89.941406 55.558594 90.191406 55.144531 90.5 C 54.707031 90.816406 54.324219 91.203125 54.011719 91.644531 C 52.621094 93.527344 52.621094 96.101562 54.011719 97.984375 C 54.324219 98.425781 54.707031 98.808594 55.144531 99.125 C 55.558594 99.4375 56.015625 99.683594 56.503906 99.859375 C 58.222656 100.488281 60.144531 100.203125 61.605469 99.097656 C 62.15625 98.679688 62.625 98.164062 62.980469 97.570312 C 63.25 97.125 63.453125 96.640625 63.582031 96.136719 C 63.683594 95.699219 63.75 95.257812 63.78125 94.816406 C 63.78125 94.816406 63.78125 94.84375 63.78125 94.902344 L 63.78125 95.164062 C 63.785156 95.304688 63.773438 95.445312 63.746094 95.582031 C 63.726562 95.773438 63.695312 95.964844 63.644531 96.148438 C 63.523438 96.667969 63.320312 97.160156 63.046875 97.613281 C 62.246094 98.972656 60.898438 99.925781 59.347656 100.222656 C 58.378906 100.40625 57.382812 100.328125 56.453125 99.992188 C 55.953125 99.816406 55.480469 99.566406 55.058594 99.246094 C 54.609375 98.921875 54.210938 98.527344 53.890625 98.074219 C 52.453125 96.136719 52.453125 93.488281 53.890625 91.550781 C 54.058594 91.328125 54.238281 91.113281 54.433594 90.910156 C 54.628906 90.722656 54.839844 90.542969 55.058594 90.382812 C 55.484375 90.0625 55.953125 89.8125 56.453125 89.632812 C 57.382812 89.300781 58.382812 89.222656 59.347656 89.40625 C 60.898438 89.703125 62.246094 90.652344 63.046875 92.011719 C 63.320312 92.46875 63.523438 92.960938 63.644531 93.476562 C 63.695312 93.664062 63.726562 93.851562 63.746094 94.042969 C 63.773438 94.183594 63.785156 94.324219 63.78125 94.46875 L 63.78125 94.726562 C 63.785156 94.800781 63.78125 94.816406 63.78125 94.816406 Z M 63.78125 94.816406 "/>
<path style=" stroke:none;fill-rule:nonzero;fill:rgb(14.901961%,19.607843%,21.960784%);fill-opacity:1;" d="M 58.339844 97.546875 C 58.261719 96.640625 58.234375 95.726562 58.261719 94.816406 C 58.234375 93.902344 58.261719 92.992188 58.339844 92.082031 C 58.417969 92.992188 58.445312 93.902344 58.417969 94.816406 C 58.445312 95.726562 58.417969 96.640625 58.339844 97.546875 Z M 58.339844 97.546875 "/>
<path style=" stroke:none;fill-rule:nonzero;fill:rgb(14.901961%,19.607843%,21.960784%);fill-opacity:1;" d="M 61.070312 94.816406 C 60.164062 94.890625 59.25 94.917969 58.339844 94.894531 C 57.429688 94.917969 56.515625 94.890625 55.609375 94.816406 C 56.515625 94.734375 57.429688 94.710938 58.339844 94.738281 C 59.25 94.710938 60.164062 94.734375 61.070312 94.816406 Z M 61.070312 94.816406 "/>
<path style=" stroke:none;fill-rule:nonzero;fill:rgb(14.901961%,19.607843%,21.960784%);fill-opacity:1;" d="M 147.300781 112.40625 C 147.265625 112.429688 143.496094 106.601562 138.886719 99.390625 C 134.273438 92.179688 130.5625 86.308594 130.597656 86.289062 C 130.636719 86.269531 134.398438 92.101562 139.003906 99.300781 C 143.605469 106.5 147.320312 112.382812 147.300781 112.40625 Z M 147.300781 112.40625 "/>
<path style=" stroke:none;fill-rule:nonzero;fill:rgb(100%,100%,100%);fill-opacity:1;" d="M 157.667969 116.386719 C 157.667969 121.21875 153.753906 125.132812 148.921875 125.132812 C 144.09375 125.132812 140.179688 121.21875 140.179688 116.386719 C 140.179688 111.558594 144.09375 107.644531 148.921875 107.644531 C 153.753906 107.644531 157.667969 111.558594 157.667969 116.386719 Z M 157.667969 116.386719 "/>
<path style=" stroke:none;fill-rule:nonzero;fill:rgb(14.901961%,19.607843%,21.960784%);fill-opacity:1;" d="M 140.179688 116.398438 C 140.179688 116.398438 140.179688 116.351562 140.179688 116.257812 C 140.179688 116.164062 140.179688 116.019531 140.191406 115.84375 C 140.191406 115.75 140.191406 115.648438 140.191406 115.542969 C 140.191406 115.4375 140.222656 115.308594 140.242188 115.175781 C 140.277344 114.871094 140.332031 114.570312 140.410156 114.277344 C 140.609375 113.449219 140.929688 112.660156 141.367188 111.929688 C 142.648438 109.742188 144.808594 108.210938 147.300781 107.734375 C 147.667969 107.664062 148.039062 107.621094 148.414062 107.601562 C 148.601562 107.601562 148.792969 107.574219 148.984375 107.578125 L 149.570312 107.605469 C 149.773438 107.613281 149.972656 107.632812 150.171875 107.671875 C 150.367188 107.699219 150.566406 107.722656 150.769531 107.761719 C 151.578125 107.945312 152.359375 108.230469 153.097656 108.609375 C 153.28125 108.710938 153.460938 108.828125 153.648438 108.9375 C 153.832031 109.046875 154.011719 109.167969 154.179688 109.300781 C 154.902344 109.816406 155.53125 110.449219 156.046875 111.175781 C 156.59375 111.910156 157.023438 112.730469 157.308594 113.601562 C 157.914062 115.40625 157.914062 117.363281 157.308594 119.167969 C 157.019531 120.042969 156.59375 120.863281 156.046875 121.601562 C 155.777344 121.960938 155.488281 122.300781 155.179688 122.621094 C 154.863281 122.925781 154.527344 123.210938 154.175781 123.472656 C 154.007812 123.605469 153.832031 123.726562 153.644531 123.835938 C 153.460938 123.949219 153.277344 124.066406 153.09375 124.164062 C 152.722656 124.359375 152.339844 124.527344 151.945312 124.667969 C 151.558594 124.808594 151.164062 124.921875 150.765625 125.011719 C 150.570312 125.050781 150.367188 125.074219 150.164062 125.105469 C 149.96875 125.140625 149.765625 125.164062 149.566406 125.167969 L 148.980469 125.195312 C 148.789062 125.195312 148.597656 125.179688 148.40625 125.171875 C 148.03125 125.152344 147.660156 125.109375 147.289062 125.039062 C 144.8125 124.5625 142.65625 123.046875 141.371094 120.875 C 140.9375 120.148438 140.613281 119.355469 140.417969 118.53125 C 140.339844 118.234375 140.285156 117.933594 140.246094 117.628906 C 140.230469 117.496094 140.207031 117.375 140.199219 117.261719 C 140.191406 117.148438 140.199219 117.046875 140.199219 116.960938 C 140.199219 116.785156 140.199219 116.644531 140.183594 116.542969 C 140.167969 116.441406 140.183594 116.402344 140.183594 116.402344 C 140.183594 116.402344 140.183594 116.449219 140.199219 116.542969 C 140.214844 116.636719 140.214844 116.78125 140.226562 116.957031 L 140.246094 117.257812 C 140.246094 117.367188 140.28125 117.492188 140.300781 117.625 C 140.34375 117.929688 140.40625 118.230469 140.488281 118.523438 C 140.691406 119.339844 141.019531 120.121094 141.457031 120.839844 C 142.742188 122.976562 144.875 124.460938 147.324219 124.921875 C 147.6875 124.988281 148.054688 125.03125 148.421875 125.050781 C 148.609375 125.050781 148.796875 125.074219 148.988281 125.070312 L 149.5625 125.039062 C 149.757812 125.035156 149.949219 125.011719 150.140625 124.976562 C 150.335938 124.945312 150.53125 124.921875 150.726562 124.882812 C 151.117188 124.792969 151.503906 124.679688 151.882812 124.542969 C 152.269531 124.402344 152.648438 124.234375 153.011719 124.042969 C 153.195312 123.945312 153.371094 123.828125 153.550781 123.71875 C 153.734375 123.613281 153.910156 123.492188 154.078125 123.359375 C 154.421875 123.105469 154.75 122.824219 155.058594 122.523438 C 155.363281 122.207031 155.648438 121.871094 155.910156 121.519531 C 156.449219 120.789062 156.867188 119.980469 157.148438 119.117188 C 157.742188 117.34375 157.742188 115.421875 157.148438 113.648438 C 156.867188 112.789062 156.449219 111.976562 155.910156 111.25 C 155.652344 110.894531 155.367188 110.558594 155.0625 110.242188 C 154.753906 109.945312 154.425781 109.664062 154.078125 109.40625 C 153.914062 109.273438 153.738281 109.152344 153.554688 109.046875 C 153.375 108.9375 153.199219 108.824219 153.015625 108.722656 C 152.648438 108.53125 152.273438 108.367188 151.882812 108.226562 C 151.507812 108.089844 151.121094 107.972656 150.730469 107.886719 C 150.535156 107.847656 150.339844 107.824219 150.144531 107.792969 C 149.953125 107.757812 149.757812 107.734375 149.566406 107.726562 L 148.992188 107.695312 C 148.804688 107.695312 148.613281 107.714844 148.425781 107.722656 C 148.058594 107.738281 147.691406 107.777344 147.328125 107.847656 C 144.878906 108.304688 142.742188 109.789062 141.460938 111.929688 C 141.019531 112.648438 140.695312 113.429688 140.488281 114.246094 C 140.40625 114.542969 140.34375 114.84375 140.304688 115.144531 C 140.285156 115.277344 140.261719 115.398438 140.25 115.511719 C 140.238281 115.625 140.234375 115.726562 140.230469 115.8125 C 140.230469 115.988281 140.207031 116.113281 140.203125 116.230469 C 140.195312 116.347656 140.179688 116.398438 140.179688 116.398438 Z M 140.179688 116.398438 "/>
<path style=" stroke:none;fill-rule:nonzero;fill:rgb(14.901961%,19.607843%,21.960784%);fill-opacity:1;" d="M 146.539062 113.175781 L 145.339844 120.015625 L 148.921875 119.523438 L 152.503906 120.015625 L 151.0625 113.175781 Z M 146.539062 113.175781 "/>
<path style=" stroke:none;fill-rule:nonzero;fill:rgb(14.901961%,19.607843%,21.960784%);fill-opacity:1;" d="M 150.433594 113.265625 C 150.40625 113.265625 150.335938 113.019531 150.136719 112.664062 C 150.027344 112.457031 149.882812 112.265625 149.707031 112.109375 C 149.597656 112.027344 149.480469 111.957031 149.355469 111.90625 C 149.21875 111.859375 149.070312 111.835938 148.925781 111.835938 C 148.640625 111.820312 148.359375 111.886719 148.109375 112.027344 C 147.917969 112.160156 147.761719 112.34375 147.664062 112.554688 C 147.484375 112.921875 147.421875 113.175781 147.394531 113.167969 C 147.40625 112.9375 147.460938 112.710938 147.5625 112.507812 C 147.65625 112.265625 147.820312 112.054688 148.03125 111.90625 C 148.300781 111.738281 148.617188 111.65625 148.933594 111.675781 C 149.097656 111.675781 149.257812 111.707031 149.410156 111.761719 C 149.554688 111.820312 149.6875 111.898438 149.800781 112 C 149.988281 112.171875 150.136719 112.382812 150.238281 112.613281 C 150.347656 112.816406 150.414062 113.035156 150.433594 113.265625 Z M 150.433594 113.265625 "/>
<path style=" stroke:none;fill-rule:nonzero;fill:rgb(14.901961%,19.607843%,21.960784%);fill-opacity:1;" d="M 114.027344 112.992188 C 113.980469 112.992188 113.949219 106.972656 113.949219 99.542969 C 113.949219 92.113281 113.980469 86.09375 114.027344 86.09375 C 114.070312 86.09375 114.105469 92.113281 114.105469 99.542969 C 114.105469 106.972656 114.070312 112.992188 114.027344 112.992188 Z M 114.027344 112.992188 "/>
<path style=" stroke:none;fill-rule:nonzero;fill:rgb(100%,100%,100%);fill-opacity:1;" d="M 122.59375 116.582031 C 122.59375 121.414062 118.675781 125.328125 113.847656 125.328125 C 109.015625 125.328125 105.101562 121.414062 105.101562 116.582031 C 105.101562 111.753906 109.015625 107.839844 113.847656 107.839844 C 118.675781 107.839844 122.59375 111.753906 122.59375 116.582031 Z M 122.59375 116.582031 "/>
<path style=" stroke:none;fill-rule:nonzero;fill:rgb(14.901961%,19.607843%,21.960784%);fill-opacity:1;" d="M 105.101562 116.582031 C 105.101562 116.582031 105.101562 116.535156 105.101562 116.441406 C 105.101562 116.347656 105.101562 116.203125 105.101562 116.023438 C 105.101562 115.933594 105.101562 115.828125 105.101562 115.726562 C 105.101562 115.621094 105.136719 115.492188 105.152344 115.359375 C 105.1875 115.054688 105.242188 114.753906 105.324219 114.460938 C 105.519531 113.632812 105.839844 112.839844 106.277344 112.113281 C 107.558594 109.9375 109.714844 108.417969 112.195312 107.945312 C 112.566406 107.878906 112.9375 107.832031 113.308594 107.8125 C 113.503906 107.8125 113.695312 107.789062 113.886719 107.789062 L 114.46875 107.820312 C 114.667969 107.824219 114.871094 107.847656 115.066406 107.882812 C 115.265625 107.914062 115.464844 107.9375 115.667969 107.976562 C 116.070312 108.058594 116.464844 108.167969 116.851562 108.300781 C 117.246094 108.441406 117.628906 108.609375 118.003906 108.800781 C 118.1875 108.902344 118.367188 109.019531 118.550781 109.128906 C 118.742188 109.238281 118.925781 109.363281 119.101562 109.5 C 119.449219 109.761719 119.785156 110.046875 120.101562 110.347656 C 120.414062 110.671875 120.699219 111.011719 120.964844 111.371094 C 121.515625 112.109375 121.941406 112.929688 122.230469 113.800781 C 122.835938 115.609375 122.835938 117.5625 122.230469 119.371094 C 121.941406 120.242188 121.515625 121.0625 120.964844 121.800781 C 120.703125 122.160156 120.414062 122.5 120.101562 122.820312 C 119.785156 123.125 119.453125 123.40625 119.101562 123.667969 C 118.929688 123.804688 118.753906 123.925781 118.566406 124.035156 C 118.382812 124.144531 118.203125 124.261719 118.015625 124.363281 C 117.644531 124.554688 117.261719 124.722656 116.863281 124.867188 C 116.480469 125.003906 116.089844 125.121094 115.6875 125.207031 C 115.492188 125.25 115.292969 125.269531 115.089844 125.304688 C 114.890625 125.339844 114.691406 125.363281 114.488281 125.367188 L 113.90625 125.394531 C 113.710938 125.394531 113.523438 125.378906 113.332031 125.371094 C 112.957031 125.351562 112.585938 125.308594 112.21875 125.238281 C 109.738281 124.761719 107.582031 123.246094 106.300781 121.074219 C 105.863281 120.347656 105.539062 119.554688 105.34375 118.726562 C 105.265625 118.433594 105.207031 118.132812 105.175781 117.828125 C 105.15625 117.691406 105.136719 117.574219 105.121094 117.460938 C 105.109375 117.34375 105.121094 117.246094 105.121094 117.160156 C 105.121094 116.980469 105.121094 116.84375 105.121094 116.742188 C 105.121094 116.640625 105.121094 116.601562 105.121094 116.601562 C 105.128906 116.648438 105.136719 116.695312 105.136719 116.742188 C 105.136719 116.839844 105.15625 116.980469 105.167969 117.15625 C 105.167969 117.246094 105.175781 117.347656 105.1875 117.457031 C 105.1875 117.566406 105.222656 117.691406 105.242188 117.820312 C 105.285156 118.125 105.34375 118.425781 105.425781 118.722656 C 105.632812 119.539062 105.960938 120.320312 106.398438 121.039062 C 107.683594 123.160156 109.808594 124.636719 112.246094 125.101562 C 112.609375 125.167969 112.972656 125.207031 113.34375 125.226562 C 113.527344 125.226562 113.71875 125.25 113.90625 125.246094 L 114.484375 125.21875 C 114.675781 125.210938 114.871094 125.191406 115.0625 125.152344 C 115.253906 125.121094 115.453125 125.101562 115.644531 125.058594 C 116.035156 124.972656 116.425781 124.859375 116.800781 124.71875 C 117.191406 124.578125 117.566406 124.414062 117.933594 124.222656 C 118.117188 124.121094 118.289062 124.003906 118.472656 123.898438 C 118.65625 123.789062 118.828125 123.667969 118.996094 123.535156 C 119.339844 123.28125 119.671875 123.003906 119.980469 122.703125 C 120.285156 122.386719 120.566406 122.050781 120.828125 121.695312 C 121.367188 120.96875 121.785156 120.15625 122.066406 119.296875 C 122.664062 117.519531 122.664062 115.601562 122.066406 113.824219 C 121.785156 112.964844 121.367188 112.152344 120.828125 111.425781 C 120.566406 111.074219 120.285156 110.738281 119.980469 110.421875 C 119.667969 110.121094 119.339844 109.839844 118.996094 109.585938 C 118.828125 109.453125 118.65625 109.332031 118.472656 109.222656 C 118.289062 109.117188 118.117188 109.003906 117.933594 108.902344 C 117.570312 108.710938 117.191406 108.542969 116.800781 108.40625 C 116.425781 108.265625 116.039062 108.152344 115.644531 108.0625 C 115.453125 108.023438 115.253906 108 115.0625 107.96875 C 114.871094 107.933594 114.675781 107.910156 114.484375 107.90625 L 113.910156 107.878906 C 113.71875 107.878906 113.527344 107.890625 113.34375 107.898438 C 112.972656 107.914062 112.609375 107.957031 112.246094 108.023438 C 109.796875 108.488281 107.660156 109.972656 106.378906 112.105469 C 105.9375 112.824219 105.609375 113.605469 105.40625 114.421875 C 105.324219 114.71875 105.261719 115.019531 105.222656 115.324219 C 105.199219 115.453125 105.175781 115.574219 105.164062 115.6875 C 105.152344 115.804688 105.164062 115.902344 105.148438 115.988281 C 105.148438 116.164062 105.125 116.304688 105.117188 116.40625 C 105.117188 116.464844 105.109375 116.523438 105.101562 116.582031 Z M 105.101562 116.582031 "/>
<path style=" stroke:none;fill-rule:nonzero;fill:rgb(14.901961%,19.607843%,21.960784%);fill-opacity:1;" d="M 113.847656 112.664062 L 110.054688 116.113281 L 110.054688 120.484375 L 113.007812 120.484375 L 113.007812 117.863281 L 114.886719 117.863281 L 114.886719 120.484375 L 117.640625 120.484375 L 117.640625 116.113281 Z M 113.847656 112.664062 "/>
<path style=" stroke:none;fill-rule:nonzero;fill:rgb(14.901961%,19.607843%,21.960784%);fill-opacity:1;" d="M 80.175781 112.710938 C 80.140625 112.6875 83.902344 106.734375 88.574219 99.417969 C 93.246094 92.101562 97.078125 86.179688 97.117188 86.21875 C 97.152344 86.253906 93.386719 92.191406 88.714844 99.511719 C 84.046875 106.835938 80.210938 112.734375 80.175781 112.710938 Z M 80.175781 112.710938 "/>
<path style=" stroke:none;fill-rule:nonzero;fill:rgb(100%,100%,100%);fill-opacity:1;" d="M 87.503906 116.472656 C 87.503906 121.300781 83.589844 125.21875 78.757812 125.21875 C 73.929688 125.21875 70.015625 121.300781 70.015625 116.472656 C 70.015625 111.640625 73.929688 107.726562 78.757812 107.726562 C 83.589844 107.726562 87.503906 111.640625 87.503906 116.472656 Z M 87.503906 116.472656 "/>
<path style=" stroke:none;fill-rule:nonzero;fill:rgb(14.901961%,19.607843%,21.960784%);fill-opacity:1;" d="M 87.503906 116.472656 C 87.496094 116.425781 87.492188 116.378906 87.488281 116.332031 C 87.488281 116.230469 87.472656 116.089844 87.460938 115.914062 C 87.460938 115.824219 87.460938 115.722656 87.441406 115.613281 C 87.421875 115.507812 87.40625 115.378906 87.382812 115.246094 C 87.34375 114.945312 87.285156 114.644531 87.199219 114.347656 C 86.996094 113.53125 86.667969 112.75 86.230469 112.03125 C 84.945312 109.898438 82.808594 108.410156 80.359375 107.949219 C 80 107.882812 79.632812 107.839844 79.261719 107.824219 C 79.078125 107.824219 78.886719 107.800781 78.699219 107.800781 L 78.121094 107.832031 C 77.929688 107.835938 77.734375 107.859375 77.542969 107.894531 C 77.351562 107.925781 77.152344 107.949219 76.960938 107.988281 C 76.570312 108.078125 76.183594 108.191406 75.804688 108.328125 C 75.414062 108.46875 75.039062 108.636719 74.671875 108.828125 C 74.488281 108.925781 74.316406 109.039062 74.132812 109.148438 C 73.949219 109.257812 73.777344 109.378906 73.609375 109.507812 C 73.265625 109.765625 72.9375 110.046875 72.628906 110.347656 C 72.324219 110.664062 72.039062 110.996094 71.777344 111.351562 C 71.238281 112.078125 70.820312 112.890625 70.539062 113.75 C 69.941406 115.523438 69.941406 117.445312 70.539062 119.21875 C 70.820312 120.082031 71.238281 120.890625 71.777344 121.621094 C 72.039062 121.972656 72.320312 122.3125 72.628906 122.628906 C 72.9375 122.929688 73.265625 123.207031 73.609375 123.460938 C 73.777344 123.59375 73.949219 123.714844 74.132812 123.824219 C 74.316406 123.929688 74.488281 124.046875 74.671875 124.144531 C 75.039062 124.335938 75.417969 124.503906 75.804688 124.644531 C 76.179688 124.785156 76.570312 124.898438 76.960938 124.984375 C 77.152344 125.023438 77.351562 125.046875 77.542969 125.078125 C 77.734375 125.113281 77.929688 125.136719 78.121094 125.140625 L 78.699219 125.171875 C 78.886719 125.171875 79.078125 125.171875 79.261719 125.152344 C 79.632812 125.132812 80 125.09375 80.359375 125.023438 C 82.8125 124.566406 84.945312 123.078125 86.230469 120.941406 C 86.667969 120.222656 86.996094 119.441406 87.199219 118.625 C 87.285156 118.332031 87.34375 118.03125 87.382812 117.726562 C 87.40625 117.59375 87.429688 117.472656 87.441406 117.359375 L 87.460938 117.058594 C 87.460938 116.882812 87.484375 116.761719 87.488281 116.644531 C 87.492188 116.597656 87.496094 116.550781 87.503906 116.503906 C 87.503906 116.503906 87.503906 116.554688 87.503906 116.644531 C 87.503906 116.738281 87.503906 116.886719 87.503906 117.0625 C 87.503906 117.15625 87.503906 117.257812 87.503906 117.363281 C 87.503906 117.46875 87.472656 117.601562 87.453125 117.730469 C 87.417969 118.035156 87.363281 118.335938 87.285156 118.632812 C 87.089844 119.457031 86.765625 120.25 86.328125 120.976562 C 85.039062 123.144531 82.878906 124.65625 80.398438 125.125 C 80.03125 125.195312 79.660156 125.238281 79.285156 125.257812 C 79.097656 125.257812 78.90625 125.28125 78.710938 125.28125 L 78.128906 125.253906 C 77.925781 125.246094 77.726562 125.226562 77.527344 125.191406 C 77.332031 125.15625 77.132812 125.136719 76.929688 125.09375 C 76.53125 125.003906 76.136719 124.890625 75.753906 124.753906 C 75.359375 124.609375 74.972656 124.441406 74.601562 124.246094 C 74.414062 124.148438 74.234375 124.03125 74.050781 123.921875 C 73.867188 123.8125 73.6875 123.691406 73.519531 123.554688 C 73.167969 123.292969 72.832031 123.011719 72.515625 122.707031 C 72.203125 122.386719 71.917969 122.046875 71.652344 121.6875 C 71.105469 120.949219 70.675781 120.128906 70.390625 119.257812 C 69.78125 117.449219 69.78125 115.496094 70.390625 113.6875 C 70.675781 112.816406 71.105469 111.996094 71.652344 111.257812 C 71.917969 110.898438 72.207031 110.554688 72.519531 110.234375 C 72.832031 109.929688 73.167969 109.648438 73.519531 109.386719 C 73.6875 109.253906 73.867188 109.128906 74.050781 109.019531 C 74.238281 108.910156 74.414062 108.796875 74.601562 108.691406 C 74.972656 108.5 75.359375 108.332031 75.753906 108.191406 C 76.136719 108.050781 76.53125 107.9375 76.929688 107.851562 C 77.128906 107.808594 77.324219 107.785156 77.527344 107.753906 C 77.726562 107.71875 77.925781 107.695312 78.128906 107.691406 L 78.710938 107.660156 C 78.90625 107.660156 79.09375 107.679688 79.285156 107.683594 C 79.660156 107.703125 80.03125 107.75 80.398438 107.816406 C 82.878906 108.289062 85.035156 109.808594 86.320312 111.984375 C 86.757812 112.710938 87.078125 113.503906 87.277344 114.328125 C 87.355469 114.625 87.410156 114.925781 87.445312 115.230469 C 87.460938 115.363281 87.484375 115.484375 87.496094 115.597656 C 87.503906 115.707031 87.496094 115.8125 87.496094 115.894531 C 87.496094 116.074219 87.496094 116.210938 87.496094 116.3125 C 87.496094 116.414062 87.503906 116.472656 87.503906 116.472656 Z M 87.503906 116.472656 "/>
<path style=" stroke:none;fill-rule:nonzero;fill:rgb(14.901961%,19.607843%,21.960784%);fill-opacity:1;" d="M 75.277344 111.917969 L 82.144531 111.917969 L 82.144531 121.023438 L 75.277344 121.023438 Z M 75.277344 111.917969 "/>
<path style=" stroke:none;fill-rule:nonzero;fill:rgb(27.058824%,35.294118%,39.215686%);fill-opacity:1;" d="M 79.039062 113.371094 C 78.292969 113.476562 77.535156 113.476562 76.789062 113.371094 C 77.535156 113.269531 78.292969 113.269531 79.039062 113.371094 Z M 79.039062 113.371094 "/>
<path style=" stroke:none;fill-rule:nonzero;fill:rgb(27.058824%,35.294118%,39.215686%);fill-opacity:1;" d="M 81.03125 114.652344 C 80.28125 114.730469 79.527344 114.757812 78.773438 114.730469 C 78.023438 114.757812 77.269531 114.730469 76.519531 114.652344 C 77.269531 114.578125 78.023438 114.550781 78.773438 114.574219 C 79.527344 114.550781 80.28125 114.578125 81.03125 114.652344 Z M 81.03125 114.652344 "/>
<path style=" stroke:none;fill-rule:nonzero;fill:rgb(27.058824%,35.294118%,39.215686%);fill-opacity:1;" d="M 81.03125 115.433594 C 80.28125 115.511719 79.527344 115.539062 78.773438 115.511719 C 78.023438 115.539062 77.269531 115.511719 76.519531 115.433594 C 77.269531 115.351562 78.023438 115.324219 78.773438 115.351562 C 79.527344 115.324219 80.28125 115.351562 81.03125 115.433594 Z M 81.03125 115.433594 "/>
<path style=" stroke:none;fill-rule:nonzero;fill:rgb(27.058824%,35.294118%,39.215686%);fill-opacity:1;" d="M 81.03125 116.210938 C 80.28125 116.289062 79.527344 116.3125 78.773438 116.289062 C 78.023438 116.3125 77.269531 116.289062 76.519531 116.210938 C 77.269531 116.132812 78.023438 116.109375 78.773438 116.132812 C 79.527344 116.109375 80.28125 116.132812 81.03125 116.210938 Z M 81.03125 116.210938 "/>
<path style=" stroke:none;fill-rule:nonzero;fill:rgb(27.058824%,35.294118%,39.215686%);fill-opacity:1;" d="M 81.03125 117 C 80.28125 117.078125 79.527344 117.101562 78.773438 117.078125 C 78.023438 117.101562 77.269531 117.078125 76.519531 117 C 77.269531 116.917969 78.023438 116.890625 78.773438 116.917969 C 79.527344 116.890625 80.28125 116.917969 81.03125 117 Z M 81.03125 117 "/>
<path style=" stroke:none;fill-rule:nonzero;fill:rgb(27.058824%,35.294118%,39.215686%);fill-opacity:1;" d="M 81.03125 117.769531 C 80.28125 117.84375 79.527344 117.871094 78.773438 117.847656 C 78.023438 117.871094 77.269531 117.84375 76.519531 117.769531 C 77.269531 117.691406 78.023438 117.664062 78.773438 117.691406 C 79.527344 117.664062 80.28125 117.691406 81.03125 117.769531 Z M 81.03125 117.769531 "/>
<path style=" stroke:none;fill-rule:nonzero;fill:rgb(27.058824%,35.294118%,39.215686%);fill-opacity:1;" d="M 81.03125 118.546875 C 80.28125 118.625 79.527344 118.652344 78.773438 118.625 C 78.023438 118.652344 77.269531 118.625 76.519531 118.546875 C 77.269531 118.46875 78.023438 118.441406 78.773438 118.46875 C 79.527344 118.441406 80.28125 118.46875 81.03125 118.546875 Z M 81.03125 118.546875 "/>
<path style=" stroke:none;fill-rule:nonzero;fill:rgb(27.058824%,35.294118%,39.215686%);fill-opacity:1;" d="M 81.03125 119.324219 C 80.28125 119.402344 79.527344 119.429688 78.773438 119.402344 C 78.023438 119.429688 77.269531 119.402344 76.519531 119.324219 C 77.269531 119.246094 78.023438 119.222656 78.773438 119.246094 C 79.527344 119.222656 80.28125 119.246094 81.03125 119.324219 Z M 81.03125 119.324219 "/>
<path style=" stroke:none;fill-rule:nonzero;fill:rgb(100%,100%,100%);fill-opacity:1;" d="M 76.832031 71.371094 L 154.253906 71.371094 C 158.195312 71.371094 161.390625 74.566406 161.390625 78.507812 L 161.390625 79.289062 C 161.390625 83.230469 158.195312 86.425781 154.253906 86.425781 L 76.832031 86.425781 C 72.890625 86.425781 69.695312 83.230469 69.695312 79.289062 L 69.695312 78.507812 C 69.695312 74.566406 72.890625 71.371094 76.832031 71.371094 Z M 76.832031 71.371094 "/>
<path style=" stroke:none;fill-rule:nonzero;fill:rgb(0%,20.784314%,40%);fill-opacity:1;" d="M 141.074219 71.234375 L 141.074219 86.425781 L 153.898438 86.425781 C 158.09375 86.425781 161.496094 83.027344 161.5 78.832031 C 161.5 74.632812 158.097656 71.234375 153.898438 71.234375 Z M 141.074219 71.234375 "/>
<path style=" stroke:none;fill-rule:nonzero;fill:rgb(100%,100%,100%);fill-opacity:1;" d="M 153 78.40625 C 152.972656 78.148438 152.929688 77.890625 152.871094 77.632812 C 152.683594 76.941406 152.273438 76.332031 151.699219 75.902344 C 150.847656 75.261719 149.726562 75.09375 148.726562 75.464844 C 148.4375 75.566406 148.171875 75.714844 147.929688 75.898438 C 147.675781 76.085938 147.453125 76.3125 147.265625 76.566406 C 146.457031 77.667969 146.457031 79.167969 147.265625 80.269531 C 147.449219 80.523438 147.675781 80.75 147.929688 80.933594 C 148.171875 81.117188 148.4375 81.261719 148.722656 81.363281 C 149.558594 81.664062 150.480469 81.605469 151.269531 81.191406 C 152.058594 80.78125 152.636719 80.058594 152.867188 79.199219 C 152.925781 78.945312 152.96875 78.683594 152.996094 78.421875 C 153.015625 78.6875 152.992188 78.957031 152.925781 79.214844 C 152.757812 79.929688 152.347656 80.566406 151.765625 81.015625 C 150.886719 81.695312 149.71875 81.878906 148.675781 81.5 C 148.375 81.398438 148.09375 81.246094 147.839844 81.058594 C 147.574219 80.863281 147.335938 80.628906 147.144531 80.359375 C 146.292969 79.207031 146.292969 77.632812 147.144531 76.480469 C 147.53125 75.957031 148.0625 75.558594 148.675781 75.339844 C 149.226562 75.140625 149.820312 75.097656 150.394531 75.207031 C 151.640625 75.445312 152.628906 76.394531 152.925781 77.632812 C 152.992188 77.882812 153.015625 78.148438 153 78.40625 Z M 153 78.40625 "/>
<path style=" stroke:none;fill-rule:nonzero;fill:rgb(92.156863%,92.156863%,92.156863%);fill-opacity:1;" d="M 78.414062 77.488281 L 134.46875 77.488281 L 134.46875 80.710938 L 78.414062 80.710938 Z M 78.414062 77.488281 "/>
<path style=" stroke:none;fill-rule:nonzero;fill:rgb(14.901961%,19.607843%,21.960784%);fill-opacity:1;" d="M 154.253906 86.425781 C 154.253906 86.425781 154.429688 86.425781 154.773438 86.394531 C 154.984375 86.382812 155.195312 86.355469 155.40625 86.3125 C 155.695312 86.265625 155.984375 86.203125 156.265625 86.117188 C 157.058594 85.878906 157.800781 85.503906 158.464844 85.015625 L 158.761719 84.792969 C 158.859375 84.707031 158.953125 84.617188 159.046875 84.53125 C 159.25 84.351562 159.441406 84.15625 159.617188 83.949219 C 159.8125 83.746094 159.964844 83.496094 160.152344 83.257812 L 160.386719 82.871094 L 160.507812 82.671875 L 160.609375 82.457031 C 160.910156 81.859375 161.121094 81.222656 161.238281 80.5625 C 161.261719 80.386719 161.289062 80.210938 161.316406 80.035156 C 161.34375 79.855469 161.335938 79.671875 161.347656 79.488281 C 161.347656 79.121094 161.347656 78.738281 161.347656 78.355469 C 161.257812 74.585938 158.238281 71.546875 154.472656 71.429688 C 152.425781 71.410156 150.253906 71.429688 147.980469 71.429688 L 76.835938 71.453125 C 75.113281 71.460938 73.449219 72.09375 72.15625 73.234375 C 70.878906 74.363281 70.054688 75.914062 69.835938 77.605469 C 69.808594 77.8125 69.789062 78.019531 69.785156 78.226562 C 69.785156 78.433594 69.769531 78.644531 69.785156 78.855469 C 69.78125 79.273438 69.796875 79.691406 69.835938 80.105469 C 69.925781 80.929688 70.167969 81.730469 70.546875 82.46875 C 71.289062 83.941406 72.523438 85.109375 74.035156 85.769531 C 74.777344 86.085938 75.566406 86.277344 76.375 86.332031 C 76.773438 86.359375 77.179688 86.355469 77.574219 86.355469 L 92.800781 86.355469 L 124.789062 86.371094 L 146.347656 86.398438 L 152.214844 86.410156 L 154.257812 86.410156 L 152.214844 86.410156 L 146.347656 86.425781 L 124.789062 86.449219 L 92.800781 86.46875 L 77.570312 86.46875 C 77.164062 86.46875 76.765625 86.46875 76.351562 86.445312 C 73.804688 86.285156 71.535156 84.78125 70.394531 82.5 C 70.007812 81.746094 69.761719 80.925781 69.667969 80.085938 C 69.628906 79.664062 69.613281 79.238281 69.617188 78.816406 C 69.617188 78.605469 69.617188 78.394531 69.632812 78.183594 C 69.636719 77.96875 69.652344 77.753906 69.683594 77.542969 C 69.902344 75.816406 70.746094 74.230469 72.050781 73.078125 C 73.375 71.910156 75.082031 71.261719 76.851562 71.257812 L 147.996094 71.28125 C 150.273438 71.28125 152.4375 71.28125 154.492188 71.296875 C 158.304688 71.421875 161.355469 74.503906 161.4375 78.316406 C 161.4375 78.707031 161.4375 79.085938 161.4375 79.457031 C 161.4375 79.644531 161.414062 79.828125 161.402344 80.007812 C 161.390625 80.1875 161.347656 80.367188 161.320312 80.539062 C 161.203125 81.207031 160.988281 81.851562 160.679688 82.453125 L 160.578125 82.667969 L 160.453125 82.867188 C 160.375 83 160.296875 83.128906 160.214844 83.257812 C 160.046875 83.496094 159.867188 83.726562 159.675781 83.949219 C 159.5 84.15625 159.308594 84.351562 159.101562 84.535156 C 159.003906 84.625 158.90625 84.714844 158.800781 84.796875 L 158.503906 85.019531 C 157.832031 85.511719 157.082031 85.878906 156.289062 86.113281 C 156.003906 86.199219 155.714844 86.261719 155.421875 86.304688 C 155.210938 86.34375 155 86.367188 154.785156 86.375 C 154.429688 86.425781 154.253906 86.425781 154.253906 86.425781 Z M 154.253906 86.425781 "/>
<path style=" stroke:none;fill-rule:nonzero;fill:rgb(100%,74.509804%,61.568627%);fill-opacity:1;" d="M 114.523438 77.066406 C 114.253906 76.75 114.226562 76.46875 114.839844 76.425781 C 116.191406 76.300781 117.1875 75.710938 117.347656 75.367188 C 117.507812 75.027344 117.074219 74.695312 116.710938 74.898438 C 116.289062 75.082031 115.84375 75.207031 115.390625 75.269531 C 115.027344 75.332031 114.65625 75.332031 114.289062 75.269531 C 113.976562 75.222656 113.691406 75.167969 113.449219 75.117188 C 113.449219 75.117188 112.019531 74.816406 111.402344 74.324219 L 108.371094 77.5625 L 109.792969 79.167969 C 110.226562 79.777344 110.945312 80.117188 111.691406 80.066406 C 112.90625 79.945312 114.550781 79.074219 114.550781 79.074219 C 114.769531 78.730469 116.734375 79.945312 117.367188 80.398438 C 118 80.851562 118.464844 80.734375 118.441406 80.300781 C 118.425781 80 116.523438 78.566406 115.886719 78.132812 C 115.394531 77.824219 114.9375 77.464844 114.523438 77.058594 "/>
<path style=" stroke:none;fill-rule:nonzero;fill:rgb(92.156863%,60%,43.137255%);fill-opacity:1;" d="M 112.746094 79.878906 C 112.746094 79.898438 112.660156 79.933594 112.5 79.933594 C 112.082031 79.90625 111.722656 79.632812 111.582031 79.234375 C 111.535156 79.089844 111.550781 78.988281 111.566406 78.988281 C 111.683594 79.214844 111.839844 79.417969 112.03125 79.585938 C 112.25 79.730469 112.492188 79.828125 112.746094 79.878906 Z M 112.746094 79.878906 "/>
<path style=" stroke:none;fill-rule:nonzero;fill:rgb(92.156863%,60%,43.137255%);fill-opacity:1;" d="M 113.945312 79.40625 C 113.945312 79.425781 113.859375 79.457031 113.710938 79.449219 C 113.3125 79.410156 112.972656 79.144531 112.835938 78.769531 C 112.789062 78.628906 112.800781 78.535156 112.816406 78.53125 C 112.835938 78.527344 112.945312 78.863281 113.269531 79.113281 C 113.480469 79.246094 113.707031 79.34375 113.945312 79.40625 Z M 113.945312 79.40625 "/>
<path style=" stroke:none;fill-rule:nonzero;fill:rgb(14.901961%,19.607843%,21.960784%);fill-opacity:1;" d="M 117.214844 45.730469 C 117.339844 48.386719 120.582031 52.027344 122.992188 52.628906 C 124.261719 52.929688 125.71875 52.792969 126.722656 53.644531 C 128.449219 55.105469 127.441406 58.144531 128.601562 60.097656 C 129.316406 61.296875 130.734375 61.894531 131.539062 63.03125 C 132.871094 64.933594 131.976562 67.808594 130.15625 69.226562 C 128.335938 70.640625 125.902344 70.910156 123.621094 70.851562 C 118.597656 70.722656 113.449219 69.125 109.820312 65.566406 C 108.113281 63.890625 101.4375 58.726562 103.765625 46.484375 "/>
<path style=" stroke:none;fill-rule:nonzero;fill:rgb(0%,20.784314%,40%);fill-opacity:1;" d="M 135.34375 64.75 L 116.242188 59.078125 C 115.355469 58.691406 114.421875 58.410156 113.464844 58.242188 L 107.011719 58.285156 C 106.160156 58.285156 105.320312 58.464844 104.539062 58.804688 L 87.152344 64.578125 C 85.867188 64.984375 84.976562 66.304688 84.976562 67.808594 C 84.976562 69.660156 86.3125 71.164062 87.960938 71.164062 L 96 71.164062 L 95.96875 71.28125 L 123.890625 71.386719 L 134.550781 71.40625 C 136.195312 71.40625 137.53125 69.890625 137.53125 68.019531 C 137.519531 66.496094 136.632812 65.160156 135.34375 64.75 Z M 135.34375 64.75 "/>
<path style=" stroke:none;fill-rule:nonzero;fill:rgb(14.901961%,19.607843%,21.960784%);fill-opacity:1;" d="M 131.515625 66.816406 C 131.460938 66.820312 131.402344 66.820312 131.34375 66.816406 L 130.851562 66.757812 C 130.425781 66.703125 129.808594 66.636719 129.050781 66.5625 C 127.058594 66.371094 125.054688 66.289062 123.050781 66.3125 C 121.050781 66.339844 119.054688 66.476562 117.070312 66.71875 C 116.308594 66.8125 115.6875 66.898438 115.269531 66.964844 L 114.777344 67.03125 C 114.71875 67.042969 114.664062 67.046875 114.605469 67.046875 C 114.660156 67.023438 114.714844 67.007812 114.769531 67.003906 L 115.257812 66.902344 C 115.679688 66.820312 116.296875 66.71875 117.058594 66.601562 C 119.046875 66.328125 121.050781 66.175781 123.058594 66.148438 C 125.0625 66.125 127.066406 66.226562 129.058594 66.449219 C 129.820312 66.535156 130.441406 66.625 130.855469 66.695312 L 131.347656 66.78125 C 131.40625 66.785156 131.460938 66.796875 131.515625 66.816406 Z M 131.515625 66.816406 "/>
<use xlink:href="#surface5" mask="url(#mask0)"/>
<use xlink:href="#surface8" mask="url(#mask1)"/>
<use xlink:href="#surface11" mask="url(#mask2)"/>
<path style=" stroke:none;fill-rule:nonzero;fill:rgb(0%,20.784314%,40%);fill-opacity:1;" d="M 87.167969 70.777344 C 87.167969 70.777344 108.996094 80.398438 108.898438 80.1875 C 108.804688 79.972656 112.363281 73.652344 112.363281 73.652344 L 94.679688 64.910156 Z M 87.167969 70.777344 "/>
<path style=" stroke:none;fill-rule:nonzero;fill:rgb(14.901961%,19.607843%,21.960784%);fill-opacity:1;" d="M 97.199219 66.160156 C 97.355469 66.210938 97.503906 66.273438 97.648438 66.347656 L 98.851562 66.914062 C 99.863281 67.398438 101.25 68.074219 102.789062 68.835938 C 104.328125 69.59375 105.707031 70.285156 106.707031 70.796875 L 107.886719 71.398438 C 108.035156 71.464844 108.175781 71.546875 108.308594 71.640625 C 108.152344 71.589844 108.003906 71.53125 107.859375 71.453125 L 106.660156 70.886719 C 105.648438 70.402344 104.257812 69.726562 102.71875 68.96875 C 101.179688 68.207031 99.800781 67.515625 98.800781 67.003906 L 97.621094 66.40625 C 97.476562 66.335938 97.335938 66.25 97.199219 66.160156 Z M 97.199219 66.160156 "/>
<use xlink:href="#surface14" mask="url(#mask3)"/>
<use xlink:href="#surface17" mask="url(#mask4)"/>
<use xlink:href="#surface20" mask="url(#mask5)"/>
<path style=" stroke:none;fill-rule:nonzero;fill:rgb(100%,74.509804%,61.568627%);fill-opacity:1;" d="M 114.019531 57.925781 C 114.070312 56.746094 114.136719 55.6875 114.136719 55.6875 C 114.136719 55.6875 116.761719 55.351562 116.875 52.6875 C 116.984375 50.019531 116.722656 43.832031 116.722656 43.832031 L 111.898438 41.5 L 106.699219 45.699219 L 107.515625 58 C 107.632812 59.773438 109.148438 61.125 110.925781 61.042969 C 112.609375 60.960938 113.949219 59.609375 114.019531 57.925781 Z M 114.019531 57.925781 "/>
<path style=" stroke:none;fill-rule:nonzero;fill:rgb(14.901961%,19.607843%,21.960784%);fill-opacity:1;" d="M 116.269531 48.664062 C 116.265625 48.847656 116.117188 48.996094 115.933594 48.996094 C 115.753906 48.996094 115.605469 48.847656 115.601562 48.664062 C 115.601562 48.484375 115.746094 48.332031 115.929688 48.328125 C 116.113281 48.328125 116.265625 48.480469 116.269531 48.664062 Z M 116.269531 48.664062 "/>
<path style=" stroke:none;fill-rule:nonzero;fill:rgb(14.901961%,19.607843%,21.960784%);fill-opacity:1;" d="M 116.59375 47.953125 C 116.550781 47.996094 116.292969 47.785156 115.941406 47.773438 C 115.589844 47.761719 115.3125 47.941406 115.273438 47.890625 C 115.234375 47.84375 115.300781 47.785156 115.414062 47.703125 C 115.570312 47.59375 115.757812 47.539062 115.949219 47.546875 C 116.140625 47.558594 116.320312 47.628906 116.46875 47.746094 C 116.578125 47.84375 116.613281 47.929688 116.59375 47.953125 Z M 116.59375 47.953125 "/>
<path style=" stroke:none;fill-rule:nonzero;fill:rgb(14.901961%,19.607843%,21.960784%);fill-opacity:1;" d="M 112.285156 48.664062 C 112.285156 48.851562 112.132812 49 111.949219 49 C 111.765625 49.003906 111.613281 48.855469 111.613281 48.671875 C 111.609375 48.484375 111.757812 48.332031 111.941406 48.328125 C 112.128906 48.328125 112.28125 48.480469 112.285156 48.664062 Z M 112.285156 48.664062 "/>
<path style=" stroke:none;fill-rule:nonzero;fill:rgb(14.901961%,19.607843%,21.960784%);fill-opacity:1;" d="M 112.609375 48.019531 C 112.566406 48.066406 112.308594 47.851562 111.953125 47.839844 C 111.601562 47.828125 111.328125 48.007812 111.289062 47.960938 C 111.253906 47.914062 111.316406 47.855469 111.433594 47.773438 C 111.585938 47.664062 111.773438 47.605469 111.964844 47.617188 C 112.152344 47.625 112.335938 47.695312 112.480469 47.820312 C 112.59375 47.914062 112.628906 48 112.609375 48.019531 Z M 112.609375 48.019531 "/>
<path style=" stroke:none;fill-rule:nonzero;fill:rgb(14.901961%,19.607843%,21.960784%);fill-opacity:1;" d="M 113.957031 51.113281 C 114.152344 51.058594 114.355469 51.027344 114.558594 51.023438 C 114.648438 51.023438 114.738281 51.003906 114.753906 50.9375 C 114.765625 50.832031 114.742188 50.730469 114.695312 50.636719 C 114.613281 50.394531 114.527344 50.140625 114.433594 49.875 C 114.195312 49.226562 114 48.5625 113.855469 47.890625 C 114.148438 48.515625 114.390625 49.160156 114.582031 49.824219 C 114.667969 50.089844 114.753906 50.347656 114.832031 50.589844 C 114.886719 50.710938 114.902344 50.847656 114.871094 50.976562 C 114.847656 51.042969 114.789062 51.09375 114.71875 51.113281 C 114.667969 51.125 114.617188 51.132812 114.5625 51.132812 C 114.363281 51.152344 114.160156 51.148438 113.957031 51.113281 Z M 113.957031 51.113281 "/>
<path style=" stroke:none;fill-rule:nonzero;fill:rgb(100%,100%,100%);fill-opacity:1;" d="M 112.777344 51.484375 C 112.410156 51.242188 113.792969 52.082031 114.523438 52.066406 C 114.265625 52.457031 113.773438 52.609375 113.339844 52.4375 C 112.566406 52.117188 112.777344 51.484375 112.777344 51.484375 Z M 112.777344 51.484375 "/>
<path style=" stroke:none;fill-rule:nonzero;fill:rgb(92.156863%,60%,43.137255%);fill-opacity:1;" d="M 114.136719 55.6875 C 112.890625 55.652344 111.683594 55.253906 110.65625 54.546875 C 110.65625 54.546875 111.476562 56.5 114.089844 56.347656 Z M 114.136719 55.6875 "/>
<path style=" stroke:none;fill-rule:nonzero;fill:rgb(14.901961%,19.607843%,21.960784%);fill-opacity:1;" d="M 103.867188 48.328125 C 103.867188 50.648438 103.25 56.785156 107.464844 57.628906 L 107.324219 49.199219 C 107.324219 49.199219 111.421875 47.269531 112.125 43.246094 L 112.148438 43.269531 C 112.410156 43.867188 112.878906 45.179688 112.59375 46.242188 L 116.429688 47.1875 L 116.871094 47.589844 C 116.871094 47.589844 118.234375 44.589844 115.601562 41.890625 C 112.96875 39.1875 110.714844 41.140625 109.300781 40.988281 C 108.363281 40.875 105.101562 40.894531 103.777344 46.507812 Z M 103.867188 48.328125 "/>
<path style=" stroke:none;fill-rule:nonzero;fill:rgb(100%,74.509804%,61.568627%);fill-opacity:1;" d="M 107.429688 49.28125 C 107.074219 49.058594 106.585938 49.242188 106.300781 49.550781 C 105.835938 50.054688 105.761719 50.804688 106.117188 51.390625 C 106.472656 51.976562 107.171875 52.257812 107.835938 52.078125 "/>
<path style=" stroke:none;fill-rule:nonzero;fill:rgb(92.156863%,60%,43.137255%);fill-opacity:1;" d="M 107.347656 51.277344 C 107.347656 51.296875 107.230469 51.316406 107.050781 51.277344 C 106.792969 51.214844 106.582031 51.027344 106.488281 50.78125 C 106.4375 50.636719 106.445312 50.480469 106.507812 50.34375 C 106.554688 50.234375 106.632812 50.140625 106.734375 50.074219 C 106.902344 49.96875 107.035156 49.976562 107.035156 49.996094 C 107.035156 50.011719 106.929688 50.050781 106.804688 50.164062 C 106.636719 50.300781 106.574219 50.527344 106.640625 50.730469 C 106.722656 50.933594 106.886719 51.09375 107.089844 51.175781 C 107.238281 51.234375 107.347656 51.253906 107.347656 51.277344 Z M 107.347656 51.277344 "/>
<path style=" stroke:none;fill-rule:nonzero;fill:rgb(0%,20.784314%,40%);fill-opacity:1;" d="M 106.996094 51.808594 C 106.847656 51.835938 106.742188 51.976562 106.757812 52.128906 C 106.773438 52.285156 106.902344 52.402344 107.054688 52.402344 C 107.210938 52.402344 107.339844 52.285156 107.355469 52.128906 C 107.371094 51.976562 107.265625 51.835938 107.113281 51.808594 "/>
<path style=" stroke:none;fill-rule:nonzero;fill:rgb(100%,74.509804%,61.568627%);fill-opacity:1;" d="M 114.769531 71.398438 L 114.769531 66.992188 C 114.769531 66.992188 108.226562 68.347656 108.105469 71.347656 Z M 114.769531 71.398438 "/>
<path style=" stroke:none;fill-rule:nonzero;fill:rgb(14.901961%,19.607843%,21.960784%);fill-opacity:1;" d="M 114.085938 57.460938 C 114.316406 60.269531 116.636719 62.453125 119.457031 62.503906 C 120.421875 62.519531 121.441406 62.292969 122.320312 62.683594 C 123.089844 63.03125 123.585938 63.769531 124.1875 64.355469 C 125.652344 65.738281 127.753906 66.214844 129.671875 65.597656 C 130.46875 65.332031 131.722656 64.761719 131.871094 63.9375 C 131.984375 63.3125 131.21875 62.6875 130.765625 62.242188 C 130.292969 61.816406 129.746094 61.472656 129.15625 61.234375 C 124.492188 59.042969 119.492188 57.453125 114.351562 57.179688 "/>
</g>
</svg>
